<?xml version="1.0" encoding="UTF-8"?>
<svg id="Layer_2" data-name="Layer 2" xmlns="http://www.w3.org/2000/svg" viewBox="0 0 72.04 87.77">
  <defs>
    <style>
      .cls-1, .cls-2 {
        fill: #fff;
      }

      .cls-2 {
        font-family: Mardoto-Black, Mardoto;
        font-size: 7px;
        font-weight: 800;
      }

      .cls-3 {
        fill: #0073b8;
      }

      .cls-4 {
        letter-spacing: -.08em;
      }

      .cls-5 {
        letter-spacing: -.03em;
      }
    </style>
  </defs>
  <g id="Layer_1-2" data-name="Layer 1">
    <g>
      <rect class="cls-3" width="72.04" height="87.77"/>
      <text class="cls-2" transform="translate(5.51 45.92)"><tspan class="cls-5"><tspan x="0" y="0">ՌԵՖՈՐՄԻՍՏՆԵՐԻ</tspan></tspan><tspan class="cls-5" x=".72" y="7">ԿՈՒՍ</tspan><tspan class="cls-4" x="16.47" y="7">Ա</tspan><tspan class="cls-5" x="21.26" y="7">ԿՑՈՒԹՅՈՒՆ</tspan></text>
      <g>
        <path class="cls-1" d="M29.83,22.22c.03-.19-.11-.29-.16-.46-.16-.54-.15-1.54.05-2.07.07-.2.25-.39.33-.59.11-.25.33-1.18.29-1.41-.03-.16-.27-.16-.39-.25-.15-.12-.75-1.19-.84-1.41-.41-.97-.29-2.34-.47-3.39-.12-.67-.4-1-.3-1.74.05-.38.36-1.06.36-1.34,0-.35-.39-.83-.52-1.19-.29-.78-.29-1.46,0-2.24.32-.85,1.21-1.48,1.92-.6.49.6.71,1.79.62,2.55-.05.45-.28.6-.09,1.11.33.89,1.03,1.83.87,2.85-.03.18-.27.67-.22.82.01.03.25.21.32.28.26.29.66,1.61.69,2.03.04.55-.16,1.53.06,1.97.07.14.28.15.36.24.07.08.08.29.09.3.02.01.15-.06.24-.04s.29.2.45.25c.08.02.55.11.6.09.21-.08.15-.7.32-.88.16-.16.59.04.81-.2.01-.01.16-.24.16-.26,0-.22-.47-.33-.65-.46-.52-.4-.64-1.41-.6-2.02.01-.16.09-.36.09-.51,0-.23-.08-.34.01-.63.08-.26.52-.7.53-.8.02-.2-.3-.83-.37-1.09-.23-.82-.29-2.09.26-2.8.16-.2.35-.18.33-.49-.01-.23-.32-.48-.42-.66-.3-.56-.08-1.31-.07-1.9,0-.64-.16-.93.07-1.59.22-.62.73-.86,1.38-.78.49.06.65.35.81.76.31.8.29,1.11.37,1.93.05.56.21,1.1.05,1.66-.11.38-.41.56-.3.99s.35,1.22.35,1.63c0,.6-.44,1.44-.31,2.11.03.16.15.27.17.47.03.28,0,.67,0,.97,0,.89-.02,2.05-.43,2.84-.2.39.06.41.1.7.04.25-.07.94.07,1.08.16.15.81.16,1.04.18-.13-.36-.01-.87.46-.67.08.03.55.63.64.53.05-.29-.2-.44-.31-.63s-.4-1.16-.37-1.37c.04-.39.25-.84.37-1.2.05-.15.28-.93.33-.98.17-.17.73.14.83.12.13-.02.3-.3.17-.43-.11-.11-.44-.04-.6-.32-.56-.96.04-2.18.48-3.07.09-.18.28-.37.29-.58.02-.34-.23-.63-.27-.96-.08-.75.26-2.52.78-3.08.7-.75,1.68-.17,1.97.66.37,1.08-.03,2.1-.32,3.15-.2.7-.37.94-.36,1.72.02,1.31-.24,1.73-.54,2.91-.06.24-.03.53-.06.77-.2,1.25-.59,2.4-1.51,3.28-.09.08-.4.25-.41.28-.07.2.08.5.04.71.29-.08.25-.21.58-.06.29.13.79.32,1,.51.24.22.48.41.71.62.08.07.4.55.46.48,0-.17.01-.35,0-.52-.05-.44-.39-.87-.26-1.33.02-.06.43-.64.5-.7.23-.22.79-.36.88-.47.01-.02.2-.37.22-.42.23-.56.37-1.3.79-1.78.08-.09.3-.19.35-.3.07-.17,0-.65.04-.89.05-.41.4-1.58.6-1.94.36-.65,1.07-1.09,1.78-.69.27.15.42.38.46.69.13,1.01-.7,2.83-.99,3.84-.17.6-.26,1.34-.58,1.9-.07.12-.27.3-.36.44-.53.82-.68,1.73-1.09,2.59-.1.21-.29.34-.37.55-.16.45-.07,1.39-.07,1.89-.09.03-.19.07-.27.12-.22.14-.38.33-.64.46-.55.28-.9.3-1.51.29-2.56-.05-4.61-.87-7-1.66-1.48-.49-2.48-1.1-4.13-.68-.09.02-.69.2-.73.22ZM35.66,4.83c-.07-.04-.23,0-.31-.01,0,.24-.05.6.26.64.25.04.4-.02.34-.29,0-.02-.26-.33-.28-.34Z"/>
        <path class="cls-1" d="M25.96,31.92c-.36-.63-.8-1.12-1.29-1.63-.4-.41-.41-.47-.65-1-.38-.82-.98-1.49-1.45-2.28-.38-.63-.83-1.01-1.2-1.57-.12-.19-.15-.36-.28-.54-.37-.5-.97-.87-1.28-1.34-.26-.39-1.08-1.72-1.15-2.12-.04-.26,0-.6.22-.77,1.09-.84,2.91.28,3.32,1.41.13.34.28,1.07.35,1.44.02.09,0,.46,0,.47.12.13.62-.18.94.14.05.05.05.13.08.17.43.48.87.58,1.19,1.18.27.52.37.93.8,1.41.37.42,1.16,1.08,1.74.87.06-.02.06-.1.11-.13.1-.05.31-.06.46-.13.28-.14.51-.46.76-.58.11-.05.48-.11.5-.19,0-.15-.18-.18-.21-.29-.04-.14-.1-.6-.11-.76-.02-.27.07-1.15.15-1.41.1-.35.52-.68.77-.93.05-.05.21-.29.23-.3.03-.02.63-.19.73-.22,1.64-.42,2.65.19,4.13.68,2.39.79,4.44,1.61,7,1.66.61.01.96,0,1.51-.29.26-.13.42-.33.64-.46.08-.05.18-.09.27-.12,0,.5-.21.97-.23,1.41-.03.81-.05,1.5-.22,2.31-.21.97-.35,1.96-.53,2.92-.05.27-.2.75-.22.98-.01.19.12.34,0,.55-.02.03-.09.05-.09.06-.29.08-.39-.22-.54-.32-.23-.14-.88-.38-1.16-.48-1.85-.65-3.91-.99-5.87-1.13-2.36-.17-4.75.09-7.04.65l-2.37.69Z"/>
        <path class="cls-1" d="M27.35,34.66c-.04-.1-.51-.52-.63-.66-.43-.51-.51-.89-.78-1.36l2.37-.69c2.29-.56,4.68-.82,7.04-.65,1.95.14,4.02.48,5.87,1.13.28.1.94.34,1.16.48.16.1.25.4.54.32-.07.13-.01.37-.14.51l-1.86,2.62c-.14.14-.45.27-.62.39-.05.04-.07.12-.12.16-1.6,1.19-4.42,1.51-6.34,1.09-.59-.13-.94-.47-1.47-.65-.57-.19-1.09-.15-1.68-.44-.25-.12-.4-.27-.68-.42"/>
        <path class="cls-1" d="M35.8,5.65s.28.32.28.34c.06.27-.09.32-.34.29-.31-.05-.26-.41-.26-.64.09.01.24-.03.31.01Z"/>
      </g>
    </g>
  </g>
</svg>