<?xml version="1.0" encoding="UTF-8"?>
<svg id="Layer_2" xmlns="http://www.w3.org/2000/svg" version="1.1" viewBox="0 0 72 87.8">
  <!-- Generator: Adobe Illustrator 29.8.4, SVG Export Plug-In . SVG Version: 2.1.1 Build 6)  -->
  <defs>
    <style>
      .st0, .st1 {
        fill: #fff;
      }

      .st1 {
        font-family: Mardoto-Black, Mardoto;
        font-size: 7px;
        font-weight: 800;
        letter-spacing: 0em;
      }

      .st2 {
        fill: #0073b8;
      }
    </style>
  </defs>
  <rect class="st2" x="0" y="0" width="72" height="87.8"/>
  <text class="st1" transform="translate(11.8 43.1)"><tspan x="0" y="0">ՀԱՅ ԱԶԳԱՅԻՆ</tspan><tspan x="8.3" y="8.4">ԿՈՆԳՐԵՍ</tspan><tspan x="-4.9" y="16.8">ԿՈՒՍԱԿՑՈՒԹՅՈՒՆ</tspan></text>
  <g>
    <path class="st0" d="M26.8,5.9c1.9.2,4.9,1.8,6.4,3.1s1.6,1.5,1.4,1.7c-1.9-.9-3.6-1.9-5.7-2.3-9-1.7-17.8,6.4-14,15.4,4.5,10.6,21.5,5.8,19.3-5.1-1.9-9.7-16.8-7.6-15.6,1.9.9,7.2,12.2,6.1,11.2-1.1s-7.3-3.6-6.8.3,2.5,1.7,2.4.6-.9-1.3.2-2,2.2.7,2.2,1.8c.2,4.4-6.5,4.9-7.2,0s9.3-8.8,11.4-2-12.4,13.8-15.4,4,13-17.3,18.7-7.4-1.4,16.7-9.9,17.2c-15.2,1-18.9-19.4-5.2-25.2s2-.5,2.9-1.1c1.2.1,2.7-.2,3.9,0Z"/>
    <path class="st0" d="M35.9,5.9c7.1,2.1,7.9,11.1,15.1,12.7,0,.3-.3.3-.5.4-3.1.6-6.6,0-9.2-1.9-3.9-2.7-5-7.5-9.2-9.9-.9-.5-1.8-.8-2.7-1.3h6.5Z"/>
    <path class="st0" d="M51.4,5.9c7.1,2,8,11,15.1,12.7-.4.5-2,.6-2.7.6-10.1,0-9.7-8.3-16.3-12.1-.8-.5-1.6-.7-2.5-1.1h6.3Z"/>
    <path class="st0" d="M43.6,5.9c7.1,2,7.9,11,15.1,12.7-.4.5-2,.6-2.7.6-10.3,0-9.9-8.7-16.7-12.3s-1.4-.5-2-.9h6.3Z"/>
  </g>
</svg>