<?xml version="1.0" encoding="UTF-8"?>
<svg id="Layer_2" data-name="Layer 2" xmlns="http://www.w3.org/2000/svg" viewBox="0 0 72.04 87.77">
  <defs>
    <style>
      .cls-1 {
        letter-spacing: -.05em;
      }

      .cls-2, .cls-3 {
        fill: #fff;
      }

      .cls-4 {
        letter-spacing: -.1em;
      }

      .cls-5 {
        letter-spacing: -.05em;
      }

      .cls-3 {
        font-family: Mardoto-Black, Mardoto;
        font-size: 7px;
        font-weight: 800;
      }

      .cls-6 {
        fill: #0073b8;
      }

      .cls-7 {
        letter-spacing: -.1em;
      }
    </style>
  </defs>
  <g id="Layer_1-2" data-name="Layer 1">
    <g>
      <rect class="cls-6" width="72.04" height="87.77"/>
      <text class="cls-3" transform="translate(2.74 42.13)"><tspan class="cls-5" x="0" y="0">Հ</tspan><tspan class="cls-4" x="4.08" y="0">Ա</tspan><tspan class="cls-1" x="8.76" y="0">ՆՐԱՊԵՏՈՒԹՅՈՒՆ</tspan><tspan class="cls-5" x="4.33" y="8.4">ԿՈՒՍ</tspan><tspan class="cls-7" x="19.52" y="8.4">Ա</tspan><tspan class="cls-5" x="24.17" y="8.4">ԿՑՈՒԹՅՈՒՆ</tspan></text>
      <g>
        <path class="cls-2" d="M41.35,5.72c-5.96-2.43-12.89-.57-16.52,4.74-3.05,4.47-3.45,9.73-.98,14.53,1.81,3.52,5.85,6.45,9.71,7.01,5.62.82,10.84-1.26,13.99-6.01,4.72-7.14,1.67-17.07-6.2-20.27ZM25.45,26.6c-6.67-8.58-.75-21.04,10.03-21.52,10.01-.44,16.9,10.05,12.59,19.11-4.26,8.96-16.52,10.25-22.62,2.4Z"/>
        <path class="cls-2" d="M33.66,15.29c.1.1.44.52.57.51.13-.01,1.37-1.37,1.58-1.56.06-.19-.3-.43-.42-.57-.05-.05-.31-.36-.32-.39,0-.06.04-.11.07-.15.1-.14.52-.57.67-.71.08-.08.26-.25.37-.19l.95.95s.02.08.01.12c-.03.17-.68.69-.83.85-.6.6-1.18,1.23-1.79,1.83-.17.16-.88.76-.94.93-.01.05-.01.07,0,.11.04.11.53.52.66.65.13.13.8.92.91.92l.34-.26c1.51-1.68,3.43-3.19,4.87-4.91.06-.07.17-.05.12-.2l-4.29-4.32c-.21-.12-.48.3-.62.43-1.05,1.05-2.09,2.11-3.15,3.15-.14.14-.76.64-.77.8,0,.03.01.05.04.08.65.64,1.29,1.29,1.94,1.93Z"/>
        <path class="cls-2" d="M40.07,23.86c-.28-.25-.53-.48-.8-.75-.41-.41-.82-.83-1.23-1.24l-.11-.03-1.58,1.6s0,.05,0,.08c.05.18.65.6.77.8.02.04.05.06.04.11-.12.15-.93,1.02-1.03,1.03-.04,0-.08,0-.11-.04l-.93-.93c-.05-.11,0-.22.07-.3.96-.95,1.91-1.91,2.87-2.87.09-.09.59-.53.61-.62.01-.06-.07-.14-.11-.18-.39-.48-.99-.91-1.4-1.4l-.11-.04-5.35,5.31,4.45,4.38,4.36-4.29c.08-.18-.3-.5-.43-.62Z"/>
        <path class="cls-2" d="M41.84,14.53l-.16-.11-2.54,2.55,1.58,1.59c.05.03.09,0,.13-.03.19-.12.67-.77.84-.76.11,0,.83.84.99.95.03.03.04.06.03.1,0,.05-.4.49-.48.57-.12.12-.39.42-.52.49-.07.04-.18-.09-.24-.13l-3.47-3.46-.11.03-1.51,1.51s-.06.12-.03.16l5.3,5.25,4.42-4.37-.09-.2-4.13-4.14Z"/>
        <path class="cls-2" d="M32.97,20.53l-1.47-1.44c-.07-.02-.2.1-.26.15-.16.14-.43.5-.57.58-.08.05-.15.06-.23,0-.11-.17-.96-.88-.94-1.02,0-.03.08-.12.11-.15.09-.11.78-.81.87-.85.07-.03.13-.05.2,0,1.01,1.04,2.06,2.04,3.07,3.07.09.1.41.53.53.5.06-.02.07-.1.11-.13.51-.43.95-.95,1.44-1.41.04-.05.05-.11.02-.17l-5.22-5.25-.14.03-4.33,4.35,4.38,4.4h.12s2.42-2.51,2.42-2.51l-.09-.17Z"/>
      </g>
    </g>
  </g>
</svg>