<?xml version="1.0" encoding="UTF-8"?>
<svg id="Layer_2" data-name="Layer 2" xmlns="http://www.w3.org/2000/svg" viewBox="0 0 72.04 87.77">
  <defs>
    <style>
      .cls-1 {
        letter-spacing: -.05em;
      }

      .cls-2 {
        letter-spacing: -.1em;
      }

      .cls-3 {
        letter-spacing: -.1em;
      }

      .cls-4 {
        letter-spacing: -.05em;
      }

      .cls-5 {
        fill: #fff;
        font-family: Mardoto-Black, Mardoto;
        font-size: 7px;
        font-weight: 800;
      }

      .cls-6 {
        fill: #0073b8;
      }

      .cls-7 {
        letter-spacing: -.1em;
      }

      .cls-8 {
        fill: #fefefe;
      }
    </style>
  </defs>
  <g id="Layer_1-2" data-name="Layer 1">
    <g>
      <rect class="cls-6" width="72.04" height="87.77"/>
      <text class="cls-5" transform="translate(14.2 43.12)"><tspan class="cls-4"><tspan x="0" y="0">ՔՐԻՍՏՈՆԵԱ-</tspan></tspan><tspan class="cls-4" x="-13.14" y="8.4">ԺՈՂՈՎ</tspan><tspan class="cls-3" x="10.15" y="8.4">Ր</tspan><tspan class="cls-4" x="14.14" y="8.4">Դ</tspan><tspan class="cls-2" x="19.01" y="8.4">Ա</tspan><tspan class="cls-4" x="23.66" y="8.4">ՎԱՐ</tspan><tspan class="cls-7" x="37.79" y="8.4">Ա</tspan><tspan class="cls-1" x="42.44" y="8.4">Կ</tspan><tspan class="cls-3" x="46.76" y="8.4">Ա</tspan><tspan class="cls-4" x="51.44" y="8.4">Ն</tspan><tspan class="cls-4" x="-7.13" y="16.8">ԿՈՒՍ</tspan><tspan class="cls-7" x="8.06" y="16.8">Ա</tspan><tspan class="cls-4" x="12.71" y="16.8">ԿՑՈՒԹՅՈՒՆ</tspan></text>
      <g>
        <path class="cls-8" d="M44.89,15.84c-.04-.14.27-.08.24-.22,0-.03-.35-.28-.41-.31-.45-.21-1-.52-1.48-.59-.5-.07-1.04-.04-1.5.16-.05.02-.05.09-.1.11-.75.26-.78.62-1.32,1.06-.45.36-.86.19-1.36,0-1.21-.44-2.26-1.34-2.97-2.4-.11-.16-.27-.61-.45-.65.04-.07.03-.11,0-.18-.09-.38-.3-.76-.39-1.17-.48-2.23.48-4.53,1.66-6.38.21-.32.6-.76.76-1.07.02-.04.06-.13,0-.15-.49.09-.95.27-1.41.46-2.69,1.11-5.51,3.24-5.65,6.41-.02.43.09.83.04,1.25-.04.06-.62-.63-.69-.68-.14-.09-.23.09-.31.21-.22.37-.35.88-.39,1.3-.37,3.55,2.76,6.81,6.31,6.61.43-.02.86-.15,1.29-.16-.21.3-.59.38-.89.56-.96.6-1.83,1.55-2.58,2.39-.58.65-1.08,1.26-1.44,2.08-.28.65-.5,1.38-.47,2.1.05.06.17-.15.19-.19.17-.27.25-.48.44-.75,1.81-2.61,3.61-2.37,6.37-3.04,1.83-.45,2.91-1.15,3.68-2.91.54-1.23.58-1.81,1.86-2.51.92-.51,1.99-.66,3.01-.87v-.15s-2.06-.32-2.06-.32Z"/>
        <path class="cls-8" d="M36.78,13.01c.13.31.17.41.34.69.05.08.5.87.61.74.02-.28-.12-.53-.19-.78-.05-.2-.18-.54-.21-.69-.16-.76.13-2.32.38-3.06.52-1.55,2.16-3.4,3.36-4.49.16-.14.96-.76,1-.86.03-.08-.06-.06-.1-.06-.98-.07-3.09.18-3.76.95-1.61,1.85-2.37,5.28-1.43,7.57Z"/>
        <path class="cls-8" d="M33.3,20.92l.05-.15c-.25.09-.5.16-.75.27-.79.33-1.45.84-2.08,1.36-1.06.88-1.93,1.81-2.39,3.16-.61,1.79-.76,2.82-1.99,4.38-.31.39-.75.75-1.01,1.1-.03.04-.08.05-.06.12.83-.08,1.74-.5,2.42-.98,2.44-1.71,1.8-4.39,3.17-6.62.18-.29.5-.79.69-1.04,0,0,.08-.01.12-.06.52-.6,1.17-1.1,1.82-1.55Z"/>
        <path class="cls-8" d="M26.89,23.55l.6-.45c.07-.16.26-.44.37-.58.11-.14.83-.66,1.02-.79.89-.61,1.9-1.01,2.93-1.33.04-.01.55-.08.43-.19-1.04,0-2.29.12-3.25.55-.98.44-1.33.76-1.84,1.68-.02.03-.13.08-.17.17-.06.14-.07.36-.11.52,0,.03-.08.03-.08.05,0,.04.05.37.1.37Z"/>
      </g>
    </g>
  </g>
</svg>