<?xml version="1.0" encoding="UTF-8"?>
<svg id="Layer_2" data-name="Layer 2" xmlns="http://www.w3.org/2000/svg" viewBox="0 0 72.04 87.77">
  <defs>
    <style>
      .cls-1, .cls-2 {
        fill: #fff;
      }

      .cls-3 {
        letter-spacing: -.1em;
      }

      .cls-4 {
        letter-spacing: -.05em;
      }

      .cls-2 {
        font-family: Mardoto-Black, Mardoto;
        font-size: 7px;
        font-weight: 800;
      }

      .cls-5 {
        fill: #0073b8;
      }

      .cls-6 {
        letter-spacing: -.1em;
      }

      .cls-7 {
        letter-spacing: -.03em;
      }
    </style>
  </defs>
  <g id="Layer_1-2" data-name="Layer 1">
    <g>
      <rect class="cls-5" width="72.04" height="87.77"/>
      <text class="cls-2" transform="translate(6.37 43.12)"><tspan class="cls-4" x="0" y="0">ԱՌԱՋԱ</tspan><tspan class="cls-7" x="24.53" y="0">Դ</tspan><tspan class="cls-4" x="29.58" y="0">ԻՄ</tspan><tspan class="cls-6" x="38.92" y="0">Ա</tspan><tspan class="cls-4" x="43.56" y="0">Կ</tspan><tspan class="cls-3" x="47.89" y="0">Ա</tspan><tspan class="cls-4" x="52.57" y="0">Ն </tspan><tspan class="cls-4" x="2.6" y="8.4">ՑԵՆՏՐԻՍՏ</tspan><tspan class="cls-6" x="37.71" y="8.4">Ա</tspan><tspan class="cls-4" x="42.36" y="8.4">Կ</tspan><tspan class="cls-3" x="46.68" y="8.4">Ա</tspan><tspan class="cls-4" x="51.36" y="8.4">Ն</tspan><tspan class="cls-4" x=".7" y="16.8">ԿՈՒՍ</tspan><tspan class="cls-6" x="15.89" y="16.8">Ա</tspan><tspan class="cls-4" x="20.54" y="16.8">ԿՑՈՒԹՅՈՒՆ</tspan></text>
      <g>
        <path class="cls-1" d="M53.08,18.06l.13.36.42.02v1.82c0,.09-.39.54-.5.61-.57.38-1.52.26-1.88-.34-.58-.98-.06-5.13-.39-5.36-1.29.06-2.04-.3-2.72-1.38l-1.11.88-.05-.44h-3.32l.1.5.6.06.17.16v2.75c.07.32.61.4.74.82.33,1.08-.16,2.26-1.34,2.43-1.42.2-1.92-.34-2.04-1.71-.12-1.31.08-2.76,0-4.09.11-.57.73-.23.99-.67l-.17-.27h-3.1c-.09,0-.22.27-.16.39.12.37.85-.22.99.79.28,2.17-.98,5.56,1.87,6.32,1.47.39,1.82-.3,2.73-.29.72.01,1.02.38,1.54.75.43-.46,2.01-.78.88-1.29-.55-.25-1.21-.27-1.8-.25.89-1.61.23-3.72.44-5.48.12-.99,1-.03,1.3.15.56.35,1.37.47,2.03.46.18,2.03-.77,5.09,1.79,5.89,2.33.73,4.46-.7,4.08-3.24l.5-.11.05-.45h-2.6l-.16.18Z"/>
        <path class="cls-1" d="M23.72,20.65c.88-1.66.25-3.84.46-5.68l.17-.16.6-.06.1-.5h-3.16c-.1,0-.26.33-.12.45l.82.29v2.75c.07.32.61.4.74.82.33,1.08-.16,2.26-1.34,2.43-1.42.2-1.92-.34-2.04-1.71-.12-1.31.08-2.76,0-4.09.11-.57.73-.23.99-.67l-.17-.27h-3.1c-.52.86.65.23.81.96.27,1.25-.14,3.27.02,4.62.17,1.36,1.81,2.11,3.05,2.04.91-.05,1.38-.79,2.43-.21.23.13.36.39.58.53l1.37-.82c.11-.64-1.79-.78-2.22-.72Z"/>
        <path class="cls-1" d="M60.28,14.24v.55c.5-.04.79-.05.88.5.13.82.08,4.07-.13,4.83-.33,1.21-2.35,1.23-2.52-.31-.17-1.48.13-3.24,0-4.75.06-.51,1.33-.03.72-.83h-3.16l.05.45.71.12c.28.17.05,4.21.13,4.91.32,2.83,5.38,2.99,5.65-.22.06-.66-.14-4.53.12-4.69l.71-.12.05-.45h-3.21Z"/>
        <path class="cls-1" d="M37.79,17.5c2.26-1.71-.08-3.7-2.27-3.37-.32.05-.9.44-1.11.44-.04,0-.25-.57-.71-.32-.05.37-.49,2.2-.24,2.37.62.42.67-.5.91-.87.98-1.55,3.29-.95,2.7.93-.28.89-2.62.47-3.44.55-2.04.2-.93.97.23,1.44.41-.32.46-.51,1-.65.84-.23,2.13-.24,2.49.7.56,1.47-.23,2.58-1.84,2.39-1.11-.13-1.12-1.56-1.45-1.65l-1.47.44c.33,1.73,2.75,2.21,4.23,1.84,2.29-.57,3.31-2.9.97-4.23Z"/>
        <path class="cls-1" d="M28.04,20.98c.26-.43.01-.83,0-1.27-.04-1.14-.15-3.38.01-4.42.08-.52.41-.57.87-.62v-.37c-.07-.18-.21-.16-.38-.18-.35-.04-2.74-.02-2.83.12-.32.49.79.33.89.94v6.41l.17.17h2.88c.53,0,1.25.79,1.33.79.26-.05,1.44-.68,1.38-.94-.15-.71-3.68-.64-4.32-.62Z"/>
        <path class="cls-1" d="M22.98,24.94c-1.61.87-3.03.94-4.66.04-.44-.24-.67-.76-1.25-.46-.06.29.07.19.22.27,1.65.97,2.75,2.11,2.66,4.2-.03.77-.36,1.47-.66,2.16.86-.24,1.7-.34,2.55,0-.13-.64-.48-1.15-.55-1.83-.13-1.36.28-2.58,1.17-3.58l1.71-1.23c-.62-.26-.75.19-1.18.42Z"/>
        <path class="cls-1" d="M10.11,10.4c-.08-.11-.11-.35-.13-.37-.2-.2-.18.07-.22.16-.33.82-.52,1.42-1.22,2.05,2.67-.02,4.99,2.34,4.45,5.05-.03.15,0,.21.15.15l.39-.28c-.28-1.07-.12-2.15.33-3.14.23.02,0,.4.02.58.1,1.14,1.73,1.32,2.11.38.52-1.27-.96-2.13-1.86-1.19-.08.02-.08-.12-.05-.16.13-.28.9-.95,1.18-1.14.59-.4,1.53-.47,1.36-1.24-2.13,1.69-4.92,1.35-6.52-.85Z"/>
        <path class="cls-1" d="M15.09,22.91c-.35-.27-.98-.87-.95-1.26.59.92,2.04.48,2.04-.61,0-1.21-1.71-1.49-2.15-.39l-.16.89c-.11-.5-.37-1-.43-1.5-.08-.71.42-1.95-.46-1.92.65,2.67-1.72,5.28-4.43,5.09.52.65,1.17,1.34,1.22,2.21.17.04.18-.02.27-.12.28-.29.44-.7.84-1.04,1.08-.94,2.73-1.32,4.1-.88l1.66.83v-.54c-.56-.16-1.09-.4-1.54-.74Z"/>
        <path class="cls-1" d="M18.88,10.57c1.17-.52,2.44-.53,3.62-.03.39.16,1.07.78,1.19.81.19.05.68-.02.59-.32-1.55-.38-2.72-2.05-2.87-3.61-.1-1.04.21-1.89.65-2.81-.81.35-1.7.23-2.55.11.92,1.77.73,4-.72,5.42-.49.48-1.13.65-1.61,1.1.69.33,1.04-.39,1.7-.68Z"/>
        <path class="cls-1" d="M21.44,25.18c.99-1.07-.71-2.6-1.68-1.51-.95,1.07.71,2.56,1.68,1.51Z"/>
        <path class="cls-1" d="M20.48,10.28c-1.26.28-1.08,2.36.41,2.19,1.51-.18,1.04-2.51-.41-2.19Z"/>
      </g>
    </g>
  </g>
</svg>