<?xml version="1.0" encoding="UTF-8"?>
<svg id="Layer_2" data-name="Layer 2" xmlns="http://www.w3.org/2000/svg" viewBox="0 0 73.41 87.77">
  <defs>
    <style>
      .cls-1 {
        letter-spacing: -.08em;
      }

      .cls-2, .cls-3 {
        fill: #fff;
      }

      .cls-4 {
        letter-spacing: -.08em;
      }

      .cls-3 {
        font-family: Mardoto-Black, Mardoto;
        font-size: 7px;
        font-weight: 800;
      }

      .cls-5 {
        fill: #0073b8;
      }

      .cls-6 {
        letter-spacing: -.08em;
      }

      .cls-7 {
        letter-spacing: -.03em;
      }
    </style>
  </defs>
  <g id="Layer_1-2" data-name="Layer 1">
    <g>
      <rect class="cls-5" x=".68" width="72.04" height="87.77"/>
      <text class="cls-3" transform="translate(0 43.12)"><tspan class="cls-7" x="0" y="0" xml:space="preserve"> ԺՈՂՈՎ</tspan><tspan class="cls-1" x="25.52" y="0">Ր</tspan><tspan class="cls-7" x="29.65" y="0">Դ</tspan><tspan class="cls-6" x="34.67" y="0">Ա</tspan><tspan class="cls-7" x="39.45" y="0">ՎԱՐ</tspan><tspan class="cls-6" x="54.01" y="0">Ա</tspan><tspan class="cls-7" x="58.79" y="0">Կ</tspan><tspan class="cls-4" x="63.26" y="0">Ա</tspan><tspan class="cls-7" x="68.07" y="0">Ն</tspan><tspan class="cls-7"><tspan x="12.81" y="8.4">ՀԱՄԱԽՄԲՈՒՄ</tspan></tspan><tspan class="cls-7" x="7.9" y="16.8">ԿՈՒՍ</tspan><tspan class="cls-6" x="23.65" y="16.8">Ա</tspan><tspan class="cls-7" x="28.44" y="16.8">ԿՑՈՒԹՅ</tspan><tspan class="cls-4" x="55.35" y="16.8">Ա</tspan><tspan class="cls-7" x="60.17" y="16.8">Ն</tspan></text>
      <g>
        <g>
          <path class="cls-2" d="M31.69,34.43l-.08-.46c-.29-6.91,7.73-7.74,9.9-13.27l.28-.98c.32,2.48-.12,4.9-1.57,6.95-1.7,2.4-4.04,3.61-6.34,5.29-.86.63-1.93,1.39-2.19,2.48Z"/>
          <path class="cls-2" d="M31.69,25.33c-.07-.02-.08-.2-.08-.26-.04-.63.05-1.57.18-2.19.71-3.21,3.69-5.01,6.09-6.89l2.23,1.57s.04.05.04.08c0,.08-.64.83-.74.94-1.66,1.83-3.62,2.87-5.57,4.3-.85.62-1.88,1.38-2.15,2.44Z"/>
          <path class="cls-2" d="M38.09,20.6c.25.18,1.88,1.61,1.85,1.77-.64.72-1.32,1.42-2.1,1.98l-2.47-1.82,2.71-1.94Z"/>
          <path class="cls-2" d="M32.85,19.59c-.07.02-.08-.02-.11-.07-.12-.16-.37-.72-.47-.94-.73-1.69-.88-3.51-.66-5.33l.33,1.13c.53,1.39,1.54,2.5,2.64,3.46-.62.53-1.26,1.08-1.72,1.74Z"/>
          <path class="cls-2" d="M41.63,25.45l.16,1.5v1.1s-.29-.65-.29-.65l-.59-.77c.28-.34.44-.74.63-1.13.02-.04-.02-.08.08-.06Z"/>
        </g>
        <path class="cls-2" d="M41.79,18.89s.03.15-.04.14c-.02-.26-.15-.52-.27-.75-.73-1.32-3.16-2.64-4.43-3.55-2.48-1.77-4.62-3.73-5.3-6.85-.27-1.23-.28-2.48-.14-3.73l.29,1.01c1.5,3.94,5.96,5.36,8.43,8.53.88,1.41,1.5,4.33,1.46,5.19Z"/>
        <path class="cls-2" d="M41.75,10.61c.05.02.07.21.07.27.12,1.05.07,2.27-.14,3.3-.06.29-.49,1.15-.54,1.43-.21-.63-.5-1.41-.82-1.91.69-.9,1.27-1.94,1.42-3.09Z"/>
      </g>
    </g>
  </g>
</svg>