<?xml version="1.0" encoding="UTF-8"?>
<svg id="Layer_2" data-name="Layer 2" xmlns="http://www.w3.org/2000/svg" viewBox="0 0 72.33 87.77">
  <defs>
    <style>
      .cls-1, .cls-2 {
        fill: #fff;
      }

      .cls-2 {
        font-family: Mardoto-Black, Mardoto;
        font-size: 7px;
        font-weight: 800;
      }

      .cls-3 {
        fill: #0073b8;
      }

      .cls-4 {
        letter-spacing: -.08em;
      }

      .cls-5 {
        letter-spacing: -.03em;
      }
    </style>
  </defs>
  <g id="Layer_1-2" data-name="Layer 1">
    <g>
      <rect class="cls-3" x=".15" width="72.04" height="87.77"/>
      <text class="cls-2" transform="translate(0 43.12)"><tspan class="cls-5"><tspan x="0" y="0">ԴԵՄՈԿՐԱՏԻԱ ՕՐԵՆՔ</tspan></tspan><tspan class="cls-5"><tspan x="1.43" y="8.4">ԿԱՐԳԱՊԱՀՈՒԹՅՈՒՆ</tspan></tspan><tspan class="cls-5" x="6.38" y="16.8">ԿՈՒՍ</tspan><tspan class="cls-4" x="22.13" y="16.8">Ա</tspan><tspan class="cls-5" x="26.91" y="16.8">ԿՑՈՒԹՅՈՒՆ</tspan></text>
      <path class="cls-1" d="M31.36,12.94c.36-.16.65-.2,1.01-.31.05-.02.13,0,.11-.08-.49-.07-.93-.16-1.32-.5-.05-.04-.31-.28-.25-.34.65.3,1.2.34,1.85,0l-.17-.33s.21.11.25.11h1.09l-.55-.37c-.23-.22-.54-.47-.56-.81.33.5,1.05.3,1.5.6.15.1.17.27.35.29l-.22.11c.16.03.31.1.48.11.06,0,.26.04.25-.05-.52-.1-.89-.52-.78-1.06l.36.45.06-.11c.22.24.52.53.87.48-.25-.15-.44-.25-.39-.59.21-.07.17.15.28.2.07.03.16-.04.24-.02.07.01.12.1.24.1.16,0,.47-.19.59-.31l-.5.03c.15-.14.26-.21.22-.45l-.33.17c.19-.46-1.25-.84-1.01-.22l-.28-.17v.28c-.23-.09-.29-.27-.42-.45l-.19.22c-.06-.2-.04-.39-.28-.42.02-.12-.02-.28.01-.38.03-.08.15-.07.16-.13.03-.13,0-.37.05-.52-.35.02-.91.1-1.17-.17.34.13.68.03,1.03.05l.76-.11h-.92c-.05,0-.4-.11-.48-.14-.37-.15-.62-.41-.81-.75,0,.4.35.59.59.84-.23-.01-.37-.25-.53-.39l-.03.17c-.12.17-.32-1.12,0-1.17.07.64.62,1.08,1.22,1.22.96.22,1.65-.08,2.56.63.16.12.62.7.67.73.1.05.12-.14.13-.2.06-.35.14-.8-.19-1.03l-.08.28c-.18.02-.19-.21-.22-.34l-.14.28-.14-.39c-.09,0-.08.14-.11.2-.11.27-.22-.25-.23-.37l-.06.34c-.24,0-.23-.31-.22-.5-.25-.06.01.34-.19.34-.17-.11-.15-.27-.14-.45l-.19.34-.14-.45-.11.34c-.17-.08-.21-.28-.22-.45l-.06.28c-.2,0-.23-.24-.22-.39l-.11.34c-.3-.13-.17-.43-.23-.63-.04-.14-.24-.19-.16-.51.21-.22.34.09.56.07v-.17c-.39.01-.6-.2-.36-.56.14-.03.49.34.48.5.16-.03-.13-.38.08-.33.13.03.27.12.41.15.52.11.96.11,1.39.52l.03-.22c.29.05.59-.11.87-.12.45,0,1.09.25,1.43.54l-.17.03v.45c.1-.03.07-.18.14-.28.11-.15.48-.46.66-.52.11-.03.19.01.26-.01.46-.15.9-.36,1.4-.36-.08.14-.3.09-.42.23-.09.1-.19.36-.31.48l.11.11-.17.28.11.11c-.16.18-.26.42-.42.59s-.32.23-.48.39c.23.06.5-.39.64-.39.32.16.43.59.87.39.05.15-.28.25-.28.31.33.3.6.19.89-.08-.06.31-.49.68-.81.67-.17,0-.31-.15-.48-.16-.02.02.16.32.17.33.06.07.04-.18.14-.11.46.42.11,1.01.25,1.51l-.2-.11c-.16.14-.07.39,0,.55l.36.4c-.39.03-.61-.16-.84-.45-.02.35-.03.62.28.84l-.34-.03c-.11.2-.2.41-.17.65-.08,0-.13-.21-.14-.28-.03-.11-.03-.22-.03-.34-.42.27-.37.75-.22,1.17-.27-.09-.49-.3-.5-.59,0-.08.2-.52.03-.36-.34.52-.1,1.53.64,1.45-.34.32-1.05-.04-1.12-.5-.2.1-.08.42-.11.62l.11-.39c.03.36.32.65.67.73l-.28.06c.26.29.72.17,1.03,0,0,.15-.27.24-.39.28-.55.19-1.08.04-1.43-.42-.31.14.03.15.04.16.36.31.43.74,1.1.82.75.09.9-.29,1.32-.78-.11.57-.51.95-1,1.2l.28.59c-.1-.07-.14-.19-.25-.28-.24-.19-.57-.29-.87-.2.31.23.37.71.63.96.13.12.46.17.34.3l-.25-.06c.08.32.39.56.73.5l-.22.11c.12.46.69.81,1.17.73,0,.12-.39.11-.33.25.07.17.75.76,1.01.64.01.12-.28.06-.22.19.03.06.52.66.59.7.11.07.23.11.36.11l-.33.14.33.34-.25-.08c-.34.35.47.59.7.34l.03.17c.11.09.62-.37.59-.25l-.11.2c.33.04.5-.21.56-.5l.11.2c.2-.21.18-.43.17-.7l.22.22-.06-.78.22.22c.09-.46.01-1.11-.61-.84-.03-.14.2-.16.03-.28l-.59.22c.08-.55.59-.66,1.06-.56-.07-.5-.89-.9-1.32-.73-.13.05-.17.18-.3.17.12-.37.47-.56.83-.63v-.16s.76.5.76.5c.11-.08.05-.08.05-.15-.08-.63-.8-1.18-1.44-1.07l-.7.33c-.05-.05.18-.36.22-.42.19-.24.55-.32.39-.64.14-.01.16.14.31.17s.4.03.57.05c.06,0,.15.04.13-.05-.85-.33-.69-1.34-1.15-1.9-.22-.27-.49-.32-.69-.56l.84.11.17-.33c-.03.43.31.68.49.99.13.21.16.49.35.63-.03-.25-.19-.44-.22-.71-.05-.39.19-1.3-.34-1.25.03-.19.42-.08.45-.11-.03-.3.19-1.08-.11-1.26-.1-.06-.27.03-.28-.08.31-.1.48,0,.64.28.17-.36.36-1.24.02-1.53-.24-.21-.64-.2-.75.13-.03.1.02.28-.08.28-.05-.37.05-.71.45-.78l-.08-.1c-.35.05-.65.31-.73.65l-.08.45c-.08-.39-.15-.63-.05-1.03.22-.9,1.41-1.55,2.06-.68.32.44.29.8.24,1.3,0,.06-.07.19.04.18.16-.61.41-1.17.45-1.82s.06-1.89-.7-2.1l-.31.22c-.01-.23.13-.38.36-.39l.04-.11c-.2-.06-.31-.25-.54-.28-.55-.08-1.29.46-.81,1-.25-.02-.24-.25-.28-.42-.02-.09.04-.1-.11-.08-.13.47-.04,1.04.56,1.01,0,.1-.25.06-.3.05-.77-.14-.88-1.25-.48-1.81,1.14-1.6,3.39-.14,3.52,1.48.23-.14.34.03.53.11.14-.22.21-.45.48-.56.02.15-.1.28-.11.43-.05.54.49,1.06.55,1.68.17,1.86-1.98,3.06-1.84,5.03,0,.11-.05.16.11.14-.32-1,1.15-1.47.78-2.46.23-.02.11.28.28.34l.17-.9c.11.02.09.12.11.19.27.95-.1,1.95-.62,2.75-.21.32-.51.55-.62.95-.01.16.07.05.1,0,.12-.2.19-.44.36-.62.28-.29.78-.37.74-.91.26.49.14,1.06-.09,1.53-.07.15-.61.85-.55.93.29-.31.75-.19.89-.64l.11.06-.28.73.11.11c-.15.26-1.03.49-1.12.67-.08.17.31-.02.37-.02.28-.03.49.02.75.11.08.08,0,.1-.08.11-.17.02-.36,0-.53.06l.28.22c-.27-.02-.59.06-.76.28-.05.06-.17.25,0,.22.26-.05.52-.06.77-.16-.17.26.15.28.17.5-.21,0-.41-.03-.62.03-.07.02-.54.28-.45.37l.45-.11-.22.28c.34-.15.78.05.78.45-.53-.15-1.04-.07-1.34.42.36.18.94.11,1.01.64-.43-.34-.93-.26-1.29.14.42.23.79.42.78.98-.15,0-.18-.15-.29-.24-.18-.13-.7-.24-.88-.13-.14.09.13.32.17.45.12.35.03.7-.2.98-.15,0,0-.22-.05-.39-.04-.16-.23-.43-.42-.39l.06.22c-.17.03-.08-.14-.26-.16-.14-.02-.26.05-.41.05l.22.28-.78-.06.11.34-.42-.22-.06.22c-.23-.33-1.15-.3-1.32-.53-.07-.1-.03-.27-.16-.31.1.28-.04.53-.1.8l.3.43.08-.22.06.56c.25,0,.14-.37.33-.45.04.4-.05.75-.17,1.12l.5-.39c.08.1-.24.98-.5.95.05.27.51.18.45.56-.32-.11-.57-.08-.78.2.1.11.25.19.22.36l-.34-.11.11.22c-.36-.07-.62.29-.61.62.11-.06.09-.23.19-.34.34-.38.72.15,1.03.27.35.14.71.01,1.08.05.16-.05.29-.27.33-.42l.11.03-.06.31c.12.12.7-.6.84-.7s.6-.36.67-.14c-.3.1-.56.5-.56.81,0,.11,0,.09.11.09-.13-.56.68-.51.67-1.06l.22.06c.06-.16.08-.32.11-.48.02-.09-.04-.1.11-.08.11.53.12,1.13-.25,1.56-.11.13-.29.18-.36.34l.56-.28-.22.61c.24-.09.43-.05.67,0l-.17.17c.12,0,.53.35.21.32-.22-.02-.44-.09-.67-.03-.13.03-.46.31-.43.45.04.15.5.46.33.82h-.17c.07-.31-.34-.45-.5-.28-.12.12.25.12.22.22l-.34.11c.32,0,.37.24.39.52l-.13.08c-.27-.33-.79.23-.88.48-.05.16.16.02.24.03.12.03.29.3.26.44-.5-.15-.9.13-1.01.62l.39-.03.11.42c-.34-.3-.53-.17-.78.14,0,.03.29.24.19.36l-.48-.06c-.03.15.03.1.11.14.13.06.66.32.75.31.08,0,.22-.19.25-.03.02.1-.11.36-.11.51-.01.32.34.92-.11,1.09-.02-.16-.2-.47-.34-.53-.27-.12-.69.1-.73-.39-.01-.15.06-.28.03-.42-.16.18-.23.39-.14.61-.19.04-.17-.24-.3-.22-.69.28-.27.91-.39,1.35-.06.24-.37.32-.38.36-.06.24.13.42.17.63-.2-.02-.43-.16-.56-.3-.27-.29-.33-.74-.67-.95.22-.05.55-.46.63-.66s-.08-.35.01-.54l.37-.02c-.46-.29-.38.09-.5.22-.04.05-.18.07-.25.14-.24.21-.37.56-.73.56-.15,0-.27-.12-.42-.09-.23.05-.34.32-.56.37-.12-.34.22-.64.27-.88s-.08-.61-.04-.85l.25.21.17-.1s.02.1.07.11c.16.04.78.02.91-.08l.28-.31c-.21-.05-.3.3-.48.11l-.08-.22c-.12-.01-.18.11-.28.14-.31.1-.43-.21-.67-.34s-.46-.09-.67-.22c.21-.28.53-.25.8-.37s.34-.42.6-.44c-.03.29.32.2.45.42l-.17.19.42-.09c.19.07.13.44.36.29.04-.03.47-.81.5-.9.06-.21-.24.06-.28.09.03-.22.18-.39.33-.53l-.22-.19c.32.1.87-.47.98-.73s.19-.95.03-1.19c-.17-.27-1.02.36-1.31.35-.32-.01-.86-.28-1.04-.56,0,.24.09.49.28.64-.39.07-.58-.37-.84-.59.08.56-.09,1.26-.73,1.4.48-.58.24-1.01,0-1.62-.08,0-.11.21-.11.26,0,.16.06.37.11.53-.43-.17-.54-.83-.39-1.23-.13-.03-.09.02-.13.07-.21.28-.47.68-.88.46.58-.27.43-.78.52-1.27.05-.26.22-.4.3-.6.02-.05.16-.51,0-.45l-.31.33.17-.62-.33.11v-.11c.48-.26.93-1,1.15-1.51.26-.59.15-1.3-.03-1.9-.1-.01-.05.12-.04.18.07.54.34,1.54-.27,1.88-.41.23-.63-.03-1.03-.1l.06.3.38.37c-.44.05-.76-.09-1.06-.39-.05.26.14.31.22.5-.55.08-.97-.29-1.4-.56.04.11-.27.47-.34.39l-.05-.48c-.23-.09-.44.07-.67.09-.06.49.22.67.67.72l-.34.11c.18.28.6.3.9.39l-.28.22c.36.12.78.2,1.06.48.02.13-.04.08-.13.07-.16-.02-.53-.14-.59.11-.04.17.15.27.21.39.18.36.19,1-.04,1.35-.05.07-.07.15-.18.13.08-.28.14-.79-.11-1.01.03.47-.1.88.04,1.33.07.24.24.39.3.63-.51-.06-.74-.46-1.01-.84-.07.37.28.54.39.84-.26.02-.57-.04-.78-.2-.11-.08-.07-.23-.22-.19.04.26.23.49.5.5-.11.21-.36.18-.56.14-.25-.05-.39-.23-.61-.31-.04.22.5.38.5.48-.42.29-.76.06-1.06-.25l.09.28c.03.14.46.27.42.37-.05.12-.31.1-.42.08-.21-.02-.3-.12-.48-.17-.04.04.13.27.17.3.15.12.41.03.39.17-.02.18-.2.27-.26.42-.11.31-.06.7-.31,1.01-.13.02-.09,0-.12-.08-.05-.15-.05-.42-.14-.54-.17-.23-.78-.18-.57-.74l.26-.38c-.3.11-.39.36-.53.62l-.12-.34c-.3,0-.57.22-.67.51-.06.2-.02.42-.17.62s-.48.19-.52.24c-.13.14.09.87-.26.49s-.23-.8-.33-1.19c-.03-.11-.18-.14-.15-.26.21.04.61-.19.76-.33.19-.18.13-.59.39-.56.1.01.17.17.25.09-.35-.4-.39-.07-.63.04-.13.06-.28.04-.41.09-.17.07-.21.21-.44.23-.34.02-.45-.22-.67-.23-.2-.01-.38.15-.59.12.03-.34.37-.5.53-.73.1-.14.24-.7.29-.72.12-.06.07.15.14.2.21-.08.19.09.27.14.25.14.58.28.87.21.23-.06.25-.31.54.01-.13-.62-.74.21-.67-.5-.75.26-.68-.81-1.4-.9.2-.31.62-.11.91-.12.27-.01.41-.19.66-.21-.1.28.26.25.28.48.02.2-.13.12-.17.25l.42.05.08.45c.66.09,1.02-.74,1.39-1.14.33-.35.76-.53,1.06-.9.04-.15-.22-.3-.3-.41-.18-.07.03.36-.19.28-.02-.29-.27-.46-.48-.61l-.05.17c-.41-.22-.57-.72-.53-1.17.13.12.3.34.48.39s-.02-.31-.02-.37c-.02-.16,0-.32,0-.47-.27-.04-.08.41-.11.45l-.08-.04-.06.1c-.2-.1.03-.49-.03-.56-.02-.02-.15.09-.2,0l.03-.22c-.16.13-.11.39-.2.61-.15.39-.38.44-.3.98.01.09.14.27.11.31-.08.1-.12-.07-.14-.11-.3-.55-.18-1.11-.03-1.68-.26.24-.45.59-.84.67.27-.3.58-.63.56-1.06-.15-.15-.68.58-.71.77-.01.06.02.64-.12.46-.11-.5-.06-.95.2-1.39l.53-.62c-.35.12-.94.04-1.01-.39.28.15.65.14.95.09.06-.01.31-.07.28-.17l-.28-.2c.39.15.7-.29,1.09-.34.14-.02.66.01.7.15.03.08-.13.28,0,.3.18-.48.8-.88,1.29-1.01v-.16s-.28-.17-.28-.17l.5.06c0-.12,0-.24,0-.36,0-.07-.04-.24.08-.2.02,0,.13.39.22.48.28.31,1.32.49,1.74.52.52.04,1.42-.14,1.8.19.26.23.33.64.58.88-.13-.38-.38-.82-.64-1.12-.2-.22-.49-.34-.59-.61l-.11.03c-.04.12-.05.32-.22.3.04-.41-.15-.31-.32-.41-.03-.02-.05-.11-.1-.15-.17-.1-.63-.15-.88-.24-.18-.07-.37-.3-.49-.13l.11.14c-.19.03-.23-.09-.31-.22-.12.06-.11.36-.31.34l-.03-.51-.37-.44h.52s.54-.17.54-.17l-1.15.11-1.31-.22c-.01-.1.13-.05.19-.05.29.03.51.08.82,0l-.17-.17.61-.06c-.07-.11-.24-.13-.36-.22-.1-.08-.24-.24-.24-.37,0-.08.09-.12.08-.2,0-.24-.08-.53-.15-.77-.14,0,0,.16,0,.2v.9c0,.07.26.23.11.42-.04.03-.27-.24-.33-.14l.11.14c-.28.02-.41-.26-.61-.39-.08.09.42.48.5.53l-.26-.02s-.02.1-.06.11c-.26.06-.73-.22-.91-.39.1.24.32.43.4.69.04.11.06.2.04.32l-.73-.52-.5-.15.11.2.73.53c-.51.06-.97-.17-1.45-.28l.34.36-.17.03.17.34-1.65-.56-.08.11.78.34c0,.05-.05.09-.1.1-.18.05-.84-.1-1.05-.16-.07-.02-.79-.35-.76-.25l.62.64c-.21.02-.45-.01-.65-.11-.13-.06-.22-.2-.28-.23-.19-.08.06.31-.11.22-.1-.05-.15-.24-.31-.22-.04.27.11.57.41.56.19.08-.13.24-.15.28-.04.06-.03.15-.06.22-.18.31-.35.66-.67.84-.09-.15.03-.35,0-.51-.04-.24-.38-.5-.26-.84l-.14.16c-.4-.34-1.16.22-1.32.59-.08.19-.05.48-.19.65s-.45.12-.62.22-.15.33-.28.45c-.22,0-.11-1.15-.17-1.34-.03-.09-.33-.41-.08-.37.07.01.11.07.23.06.47-.04.86-.29.83-.81l-.2.33c-.42-.22-.75.19-1.06.23-.16.02-.28-.06-.43-.05-.21.03-.35.23-.55.27-.06-.36.21-.59.36-.84.04-.07.05-.17.1-.24.08-.13.3-.16.22-.48.16-.05.11.14.22.2.15.07.8.03.97-.04.12-.05.16-.19.3-.21.18-.02.29.16.47.11l-.32-.21c-.45.07-.31-.15-.45-.24-.18-.12-.49-.08-.69-.13-.15-.07-.09-.31-.16-.44-.06-.1-.43-.31-.56-.26v-.16c.44-.22.98-.01,1.42-.11.08-.02.08-.37.32-.28-.18.29.46,1.14.67,1.21.13.04.47.02.54-.08s-.03-.38.17-.45c.14-.05.06.26.22.22l.09-.22c.29.25.88-.02,1.21-.16.24-.1.44-.27.69-.35.04-.18-.34-.18-.14-.33.21.17.38-.02.52-.04.58-.11.89-.24,1.4-.56.33-.3.83-.58,1.13-.88.13-.13-.07-.04-.06-.2l-.28.17c-.07-.18.14-.26.16-.32.05-.12.05-.27.12-.42.2-.4.49-.71.92-.87.09-.08-.05-.06-.1-.04-.58.2-.97.54-1.31,1.05-.03.05-.14.12-.05.17.17-.17.31-.41.47-.59.04-.05.15-.2.22-.11-.5.99-.93,1.89-2.24,1.76-.03-.15.04-.1.11-.14.41-.24.8-.44,1.01-.89.03-.06.13-.25,0-.26l-.22.39c.09-.27.14-.63.25-.9.03-.06.39-.54.28-.5-.21.15-1.07.54-1.26.33-.1-.1.24-.18.22-.28l-.45.11.78-.78c-.36.17-.2.11-.39.31-.33.35-.66.58-1.18.45l-.11-.54c-.26.13.08.39-.06.61.23.04.49.17.71.21.11.02.61.07.71.07.11,0,.66-.26.7-.22-.29.56-.22,1.25-.76,1.68-.12.02-.08-.05-.1-.12-.05-.17-.05-.38-.14-.53-.04-.06,0-.09-.12-.07.02.38-.01.81-.25,1.12l-.18-.54c-.15-.31-.4-.6-.4-.97-.1-.01-.06.13-.05.19.05.36.27.85-.06,1.15-.05-.17-.06-.35-.13-.52s-.45-.76-.57-.94c-.02-.03-.07-.08-.08-.06v.39c-.26-.15-.05-.62-.28-.78v.78c-.52-.51-.57-1.27-.45-1.96-.14-.17-.36.71-.28.78-.1-.02-.22-.42-.22-.48v-.98c-.21-.01-.19.42-.22.56-.1.13-.29-1.03-.22-1.12l-.22.17.06-.5c-.24.05-.23.32-.53.34-.14,0-.73-.04-.89-.06-.11-.02-.2-.1-.31-.11-.02-.15.22-.15.35-.23.33-.22.17-.39.15-.72.3.09.74.09.95-.17-.19-.04-.14-.41-.3-.6-.25-.31-.87-.4-1.1-.72-.15-.2-.13-.4-.23-.61-.07-.15-.38-.36-.38-.46.45-.14.8.21,1.26.14.15-.02.08-.2.25-.17-.01.32.17.86.42,1.06.12.1.46.2.51.28.07.11-.04.31.08.34.04-.34-.03-.53-.38-.57-.07-.08.05-.48.04-.57-.03-.17-.41-.26-.24-.77.08-.23.26-.05.19-.58-.03-.26-.29-.63.25-.2.34.27.48.78,1.04.61-.14.14-.39.57-.39.75v.81c.1-.02.07-.18.14-.28.06-.08.19-.16.22-.23.08-.17-.01-.38.14-.59.12-.17.3-.15.42-.25.14-.12.22-.43.26-.61.4.28.24.94.33,1.36.02.08.33.08.28.26-.55-.05-1.18.48-1.06,1.06-.19-.08-.26-.47-.5-.42.17.16.28.36.39.56.13.22.49,1.07.61,1.18.04.03.1.06.11,0l-.06-.31c.19-.06.13.3.17.34l.39-.17c-.59.72.66,1.27,1.04,1.79l.25-.17c.03.28.25.36.5.34l-.06.17ZM37.22,6.63h-.07c-.09.07-.21.14-.14.27-.21.06-.16-.12-.28-.17.07.58.67.04.98,0,.18-.02.3.01.47.05-.22-.26-.66-.2-.92-.05l-.04-.1ZM40.03,6.62c-.7.2-1.3.49-1.17,1.34l.45-.36-.17-.19s.43-.08.3-.17c-.03-.02-.1.04-.08-.05l.22-.06-.17-.11c.3.01.24-.15.29-.21.05-.05.3-.03.32-.18ZM47.47,8.19c.08-.54-.23-.79-.51-1.14-.06-.08-.01-.2-.11-.2.14.68.16,1.35,0,2.04-.22.88-.87,1.64-.94,2.55l.16-.43c.32-.96,1.8-1.77,1.13-2.87l.28.06ZM37.9,7.4c-.28.04-.53.2-.78,0-.02.27.28.39.5.39l-.06-.17h.28s-.11-.11-.11-.11l.17-.11ZM39.19,8.19c.12,0,.7-.47.61-.56l-.44.26-.17.3ZM35.24,8.47c-.35-.05-.79.03-1.15,0l.11.39.2-.33.17.33.17-.33.08.33c.18.07.14-.25.17-.28h.17s0,.33,0,.33l.28-.22.06.34.28-.22v.34s.2-.22.2-.22c.16.07-.02.39.2.34l.08-.22.08.33.22-.11c-.03.23.02.42.28.31.02-.26-.72-.77-.97-.88-.13-.06-.5-.2-.63-.21ZM39.52,9.08c.08-.09-.36-.59-.56-.5,0,.1.15.07.19.16.02.04-.03.13-.01.18.04.14.14.26.1.43l-.34-.17.11.89-.39-.28c-.07.19.06.4-.2.45l-.31-.28v.22s.11-.06.11-.06l.11.73c.26-.15.28-.52.34-.78.18.15.37.28.61.28-.02-.16-.15-.21-.21-.38-.07-.2-.08-.42-.07-.63.23-.02.17.43.33.5.01-.32.03-.6-.11-.89l.28.11ZM38.28,9.04s-.25-.14-.21.01c.02.09.37.49.45.42-.11-.1-.16-.35-.24-.43ZM39.99,9.95s-.01-.15-.08-.06c-.01.18.09.34.19.48.05.07,0,.14.14.11,0-.29-.07-.36-.26-.53ZM37.01,10.54l-.03-.17c-.02.09-.04.17-.08.25-.05.09-.25.14-.09.25l.59-.25c-.14-.14-.19.02-.34.03l.11-.22-.17.11ZM37.79,10.59l-.03-.17c-.17.19-.3.36-.36.61l.56-.42-.17-.03ZM44.84,12.33v-.98c0-.05.1-.2.06-.31l-.08.06c-.09.55-.39,1.04-.42,1.59,0,.07-.04.31.06.31l.11-.89.06.22.06-.17h.11s.06.17.06.17ZM36.43,11.57c-.1-.04-.28-.1-.37-.05.27.23.61.28.95.25l-.51-.12s-.05-.08-.06-.08ZM45.51,12.38l-.08-.78c-.14.18-.18.45-.2.67l.11-.11.17.22ZM38.74,11.94l-.28-.05-.17.39c.12.09.46-.31.45-.33ZM28.61,13.05c-.12-.34.04-.61.05-.95-.08-.01-.08.1-.1.16-.07.28-.07.57-.13.85l.11-.06c.03.1.02.26.17.22.02-.24.08-.58.28-.73.04.29-.12.71.17.9l.06-.31-.17.08.05-.9-.14.11-.03-.17c-.21.17-.06.61-.33.78ZM32.63,12.17l-.44.04c-.13.09.87.3.95.22l-.34-.06.22-.22-.36.12-.04-.1ZM37.29,13.05c.25-.16-.03-.46.11-.67-.27.12-.17.45-.11.67ZM34.77,12.72c-.21-.04-.59.69-.56.73l.56-.39-.17-.11.17-.22ZM33.15,13.06l-.41-.05-.43.61c.39-.31.9-.21,1.34-.36.12-.13.03-.08-.06-.06-.22.03-.44.11-.66.09l.22-.22ZM35.08,13.28c.26-.06.69.04.98,0l-.53-.16c-.33-.04-.7,0-.75.39.02.02.24-.21.31-.22ZM37.68,13.73l-.11-.39c0,.26-.06.63.22.78v-.5s-.11.11-.11.11ZM36.11,14.68c.13-.33-.09-.6-.06-.92.01-.15.1-.22.11-.36-.42.27-.18.83-.39,1.2,0,.16.07.05.1-.01.06-.15.05-.24.07-.38.02-.09-.03-.1.11-.08.02.29,0,.66-.2.89-.12.15-.31.11-.3.28.35-.12.7-.25.98-.5.09-.08.1-.2.19-.23l-.11.45.17-.11c-.13.7.04,1.39.73,1.71l-.06-.67.11-.25.06.62.22-.22c-.02.5.3,1.02.78,1.17-.49-.53-.17-1.26-.34-1.9l.17-.06c-.55-.16-.96-.77-1.12-1.29-.1-.01-.05.12-.03.17.07.26.26.53.26.81,0,.33-.21.75-.23,1.09l-.06-.39-.17.28-.06-.56-.14.22c-.17-.53.09-1.11-.14-1.68-.13.06.02.27,0,.41-.03.16-.31.39-.44.49.03-.19.17-.29.21-.49.01-.05.06-.2-.04-.18l-.2.5h-.19ZM35.05,14.06c-.64-.1-1.1.28-1.6.62l-.05-.11-.53.56,1.47-.9.71-.16ZM44.78,15.35c.07-.3-.02-.67-.39-.67.08.12.18.22.25.34.06.11.05.29.14.33ZM46.52,15.52c.19-.22.39-.56.45-.84l-.61.5.11.08-.22.36.22-.2.06.08ZM35.66,17.08c-.06-.16-.25-.08-.37-.16-.1-.07-.08-.26-.19-.28l.05.42.51.03ZM45.57,17.03c.05-.17-.46-.44-.5-.39.06.38.28.23.5.39ZM39.3,17.64l-.29-.41-.21-.54c-.03.32.12.6.32.82.06.06.06.16.18.13ZM33.76,17.7c-.04-.06-.15-.4-.17-.42-.03-.03-.43-.27-.45-.25.08.25.13.41.08.67l.14.06-.03-.5.42.45ZM34.2,17.29l-.38-.15.53.39.14-.17-.25-.17-.04.1ZM31.97,18.15c-.37.01-.62-.25-.95-.33l.28.33-.67-.17c-.06.26.18.35.22.56-.12,0-.22-.06-.33-.09-.06-.01-.18-.07-.17.03l.89.22c.1-.08-.62-.42-.56-.61.2,0,.38.11.59.12.16,0,.31-.06.44-.05.18.02.31.2.49.21l-.11-.14.11-.06c-.12-.06-.28-.3-.39-.22l.17.2ZM40.03,18.65l-.06-.34-.14.39.03-.28c-.23.05-.19.32-.28.5l.39-.22c-.03.13.29.92.45.78-.15-.27-.06-.5-.06-.78l-.14.39c-.14-.13-.07-.34-.08-.5l-.11.06ZM38.96,18.48c-.16.23-.53.49-.67.7-.06.09-.02.14.03.14.05,0,.68-.67.64-.84ZM45.32,18.78s-.25-.2-.26-.19l.17,1.01c.24-.12-.02-.46.06-.67l.17.17c.01-.12-.06-.23-.13-.32ZM29.68,18.71c-.25.09-.43-.03-.67-.06l.04.1-.1.04.22.14-.06-.17c.08-.06.59.21.56-.06ZM38.52,19.49c.09.09.69-.62.61-.78l-.61.78ZM40.7,19.94l.06-.3-.17-.59c.07.41.07.77,0,1.17.2-.06.33-.3.33-.5l-.22.22ZM41.32,19.94l-.11-.22.05.39-.11.03c.07.1.13.27.28.25v-.5s-.11.06-.11.06ZM40.25,21.36c.03.26-.02.55,0,.81l.11-.42c.02-.47-.1-1.08-.38-1.47-.02-.03-.09-.18-.13-.1.17.36.35.77.39,1.17ZM40.25,24.58c.09-.3.03-.58.16-.88.24-.58.98-1.08.91-1.81l-.25.67c-.43.64-.8,1-.87,1.82,0,.06-.04.21.05.19ZM33.26,22.17c-.11,0-.19.06-.31.06-.11,0-.34-.14-.31.02.06.31.44.26.67.25l-.05-.11.1-.06-.45.05.34-.22ZM42.04,23.52c.16-.05.25-.69.14-.73-.15.17-.11.43-.25.59l.11.14ZM34.04,23.63l.03-.67-.08.39-.11-.17c0,.13-.04.48.17.45ZM35.94,24.86c0-.38-.51-.5-.73-.78l.11.2.62.59ZM40.42,26.31l-.11-.78c0,.26-.03.52.04.77.03.11.34.63.35.43l-.06-.36-.11.06v-.5s-.11.39-.11.39ZM39.97,26.2c-.01-.16.08-.45-.17-.45.1.28.02.41-.06.67l.14-.17.25.17c0-.14.04-.34-.11-.39l-.06.17ZM36.5,26.71l.06-.78-.06.17-.11-.11.05.5-.11-.06c.03.1,0,.32.17.28ZM45.34,27.49s-.38.11-.45.14-.22.06-.23.14c.22.08.39-.03.56-.14.07-.04.14.01.11-.14Z"/>
    </g>
  </g>
</svg>