<?xml version="1.0" encoding="UTF-8"?>
<svg id="Layer_2" data-name="Layer 2" xmlns="http://www.w3.org/2000/svg" viewBox="0 0 72.04 87.77">
  <defs>
    <style>
      .cls-1 {
        letter-spacing: -.08em;
      }

      .cls-2, .cls-3 {
        fill: #fff;
      }

      .cls-4 {
        letter-spacing: -.07em;
      }

      .cls-5 {
        letter-spacing: -.03em;
      }

      .cls-6 {
        letter-spacing: -.08em;
      }

      .cls-3 {
        font-family: Mardoto-Black, Mardoto;
        font-size: 7px;
        font-weight: 800;
      }

      .cls-7 {
        fill: #0073b8;
      }

      .cls-8 {
        letter-spacing: -.08em;
      }

      .cls-9 {
        letter-spacing: 0em;
      }

      .cls-10 {
        letter-spacing: -.03em;
      }
    </style>
  </defs>
  <g id="Layer_1-2" data-name="Layer 1">
    <g>
      <rect class="cls-7" width="72.04" height="87.77"/>
      <text class="cls-3" transform="translate(6.93 43.12)"><tspan class="cls-10" x="0" y="0">ՔԱՂԱՔ</tspan><tspan class="cls-4" x="24.91" y="0">Ա</tspan><tspan class="cls-5" x="29.79" y="0">ՑԻ</tspan><tspan class="cls-8" x="38.84" y="0">Ա</tspan><tspan class="cls-10" x="43.63" y="0">Կ</tspan><tspan class="cls-6" x="48.09" y="0">Ա</tspan><tspan class="cls-10" x="52.91" y="0">Ն</tspan><tspan class="cls-10" x="4.35" y="8.4">Պ</tspan><tspan class="cls-4" x="10.18" y="8.4">Ա</tspan><tspan class="cls-10" x="15.07" y="8.4">ՅՄ</tspan><tspan class="cls-6" x="24.82" y="8.4">Ա</tspan><tspan class="cls-10" x="29.63" y="8.4">Ն</tspan><tspan class="cls-1" x="34.76" y="8.4">Ա</tspan><tspan class="cls-9" x="39.57" y="8.4">Գ</tspan><tspan class="cls-10" x="44.76" y="8.4">ԻՐ</tspan><tspan class="cls-10" x=".32" y="16.8">ԿՈՒՍ</tspan><tspan class="cls-8" x="16.07" y="16.8">Ա</tspan><tspan class="cls-10" x="20.85" y="16.8">ԿՑՈՒԹՅ</tspan><tspan class="cls-6" x="47.77" y="16.8">Ա</tspan><tspan class="cls-10" x="52.59" y="16.8">Ն</tspan></text>
      <path class="cls-2" d="M47.05,22.23c.52,1.85-1.2,2.97-2.88,2.45.83,1.83-.75,3.62-2.67,2.93.31,1.06.28,2.11-.76,2.73-.51.3-.99.32-1.56.41l-3.52,3.51c-1.44.46-3.2-.07-3.52-1.69-.09-.45-.06-.79-.02-1.24-.93.22-1.9.13-2.59-.59s-.7-1.66-.56-2.56c-1.98.47-3.69-1.05-2.93-3.09-1.84.51-3.73-.67-3.52-2.69.02-.21.2-.57.13-.72l-3.6-3.59,10.84-11.87,3.25,3.04,5.7-6.23,14.1,14.05-5.11,5.75s-.07.02-.11,0c-.19-.1-.48-.5-.69-.62ZM38.88,5.28c-.41.39-.8.81-1.18,1.22-2.6,2.79-5.16,5.63-7.69,8.46-.62,1.53,1.23,2.75,2.44,1.64,1.09-1.01,2.17-2.44,3.22-3.55.54-.56,1.11-1.09,1.65-1.65l10.12,9.7,3.53-3.89v-.11s-12.1-11.83-12.1-11.83ZM39.49,29.21c1.64-.49.84-2.04.05-2.96-1.57-1.81-3.67-3.35-5.22-5.17-.34-.4-.78-.9-.34-1.41.36-.41.73-.17,1.06.1,1.9,1.54,3.66,3.88,5.52,5.57.75.68,1.69,1.66,2.53.45.45-.65.18-1.13-.24-1.67-1.03-1.33-2.5-2.53-3.71-3.7-.44-.43-2.32-2.2-2.47-2.59-.28-.74.45-1.29,1.14-.77.78.6,1.72,1.64,2.43,2.37.81.83,3.3,3.83,4.29,3.97.93.13,1.78-.54,1.39-1.5-.42-1.04-2.52-2.81-3.37-3.66-1.7-1.71-3.33-3.5-5.17-5.05-.33.32-.67.64-.99.97-.92.94-1.79,1.94-2.72,2.88-1.1,1.12-1.7,2.04-3.41,1.12s-2.17-2.64-1.02-4.28c.87-1.24,2.17-2.25,3.1-3.45l-2.36-2.21-8.93,9.88,2.58,2.54c.7-.55,1.27-1.3,1.95-1.89.35-.31.89-.78,1.33-.91,1.33-.37,2.82.88,3.16,2.12.08.27.07.53.17.79.93.2,1.81.43,2.43,1.2.43.53.53,1.15.72,1.79.36.13.75.15,1.11.28,1.2.43,1.7,1.5,1.86,2.7,1.6-.06,2.7,1.06,3.14,2.51ZM27.21,19.26c-.22.03-.45.14-.63.28-.84.64-1.6,1.78-2.41,2.5-.68,1.16.5,2.43,1.69,1.96.65-.63,1.33-1.23,1.95-1.89.2-.21.77-.78.87-.99.52-1.06-.39-2-1.47-1.85ZM30.35,22.24c-.39.05-.67.29-.95.55-.42.39-1.89,1.83-2.14,2.23-.66,1.07.29,2.25,1.47,2.06.16-.03.65-.49.8-.64.77-.7,1.45-1.5,2.18-2.25.57-1.03-.24-2.08-1.37-1.95ZM33.39,25.33c-.22.03-.46.15-.63.28-.41.31-2.23,2.14-2.47,2.54-.37.61-.15,1.42.43,1.8.3.2.88.33,1.21.16.26-.14,1.15-1.03,1.42-1.3.33-.33,1.26-1.25,1.45-1.59.55-1.01-.35-2.03-1.41-1.89ZM36.48,28.21c-.24.04-.39.13-.57.28-.85.68-1.6,1.75-2.41,2.49-.37.68-.17,1.54.54,1.88.26.13.8.21,1.07.1.12-.05.78-.68.94-.82.67-.63,1.26-1.34,1.9-1.99.62-1.14-.23-2.13-1.46-1.94Z"/>
    </g>
  </g>
</svg>