<?xml version="1.0" encoding="UTF-8"?>
<svg id="Layer_2" data-name="Layer 2" xmlns="http://www.w3.org/2000/svg" viewBox="0 0 72.04 87.77">
  <defs>
    <style>
      .cls-1 {
        letter-spacing: -.07em;
      }

      .cls-2 {
        fill: #fff;
        font-family: Mardoto-Black, Mardoto;
        font-size: 6.23px;
        font-weight: 800;
      }

      .cls-3 {
        letter-spacing: -.03em;
      }

      .cls-4 {
        letter-spacing: -.08em;
      }

      .cls-5 {
        fill: #0073b8;
      }

      .cls-6 {
        letter-spacing: -.03em;
      }

      .cls-7 {
        fill: #fefefe;
      }

      .cls-8 {
        letter-spacing: -.08em;
      }
    </style>
  </defs>
  <g id="Layer_1-2" data-name="Layer 1">
    <g>
      <rect class="cls-5" width="72.04" height="87.77"/>
      <text class="cls-2" transform="translate(19.18 42.47)"><tspan class="cls-6" x="0" y="0">Հ</tspan><tspan class="cls-1" x="3.76" y="0">Ա</tspan><tspan class="cls-3" x="8.11" y="0">ՅԱՍՏ</tspan><tspan class="cls-8" x="24.64" y="0">Ա</tspan><tspan class="cls-3" x="28.93" y="0">Ն</tspan><tspan class="cls-6" x="-17.91" y="7.48">ԿՈՒՍ</tspan><tspan class="cls-4" x="-3.89" y="7.48">Ա</tspan><tspan class="cls-6" x=".37" y="7.48">ԿՑՈՒԹՅՈՒՆՆԵՐԻ</tspan><tspan class="cls-6" x="4.05" y="14.95">ԴԱՇ</tspan><tspan class="cls-8" x="16.97" y="14.95">Ի</tspan><tspan class="cls-3" x="20.63" y="14.95">ՆՔ</tspan></text>
      <path class="cls-7" d="M20.41,3.04h14.84c.33.04.66.04.99.08,1.79.25,3.13,1.2,4.29,2.52,1.02,1.16,2.01,2.36,3.02,3.54.4.47.81.97,1.19,1.42.29.34.61.77.92,1.08.03.03.06.06.11.07.02.09.02.03.05.05,0,.12.12.19.19.24.02.01.03.03.05.05,0,.12.11.15.15.2.17.21.89,1.15,1.06,1.24.13.3.68.79.89,1.04.05.06.07.19.19.2,0,.02.02.04.03.05.07.14.13.18.24.27,0,0,.02.02.03.03,0,.05.02.07.05.11.27.37.61.71.91,1.06.08.09.14.24.26.27.09.24.8.96,1.01,1.22s.42.51.64.77c.05.06.11.1.16.17-.13.14-.23.31-.35.45-.13.15-.29.26-.38.45,0,0,0,.02,0,.03-.09.02-.17.12-.23.19-.17.19-.78.87-.85,1.06-.12.03-.14.14-.22.22-.34.39-.73.78-1,1.21-.26.18-.75.8-.99,1.08-.1.12-.34.39-.39.51-.03,0-.04,0-.07.03-.26.24-.57.69-.81.97-.15.17-.24.25-.37.46-.04.02-.18.14-.21.17s-.02.09-.04.13c-.36.26-.67.75-.97,1.1-.45.52-1.32,1.38-1.62,1.94-.22.17-.33.34-.5.54-.59.68-1.2,1.35-1.77,2.04-.12.14-.24.28-.33.45-.28.21-.52.64-.77.81-.11.08-.04,0-.15.12-.33.4-1.38,1-1.88,1.21-.34.14-.7.23-1.05.35-.02,0-.04,0-.05,0-.1,0-.25.06-.35.08-.04,0-.07.02-.11.03-.08.01-.18.02-.27.03-.02,0-.04,0-.05,0-.22.02-.44.03-.66.06h-14.84s-.08.01-.05-.04c.03-.08.21-.22.26-.31,3.79-4.38,7.51-8.82,11.3-13.2.32-.37.66-.72.97-1.1.11-.13.24-.27.32-.42,0,0,.03,0,.05,0l.48-.56v-.11c-.54-.62-1.06-1.25-1.6-1.87-.12-.14-.57-.71-.69-.76-.07-.13-.15-.22-.24-.34-.62-.76-1.29-1.52-1.92-2.25-.09-.1-.33-.42-.43-.45-.6-.8-1.3-1.56-1.96-2.33-.17-.2-.35-.46-.53-.64-.04-.04-.05-.05-.11-.07,0-.01,0-.07-.03-.1l-2.05-2.39s-.04-.02-.07-.03c-.05-.13-.3-.41-.43-.49,0,0,0-.02,0-.03-.11-.23-.47-.56-.65-.77-.31-.37-.62-.75-.93-1.12-.1-.12-.23-.28-.37-.35,0,0,0-.02,0-.03-.05-.12-.08-.19-.22-.24l-1.16-1.37c-.02-.06.05-.03.05-.04Z"/>
    </g>
  </g>
</svg>