<?xml version="1.0" encoding="UTF-8"?>
<svg id="Layer_2" data-name="Layer 2" xmlns="http://www.w3.org/2000/svg" viewBox="0 0 74.36 87.77">
  <defs>
    <style>
      .cls-1 {
        fill: #fff;
        font-family: Mardoto-Black, Mardoto;
        font-size: 6.23px;
        font-weight: 800;
      }

      .cls-2 {
        fill: #fcfcfc;
      }

      .cls-3 {
        letter-spacing: -.08em;
      }

      .cls-4 {
        letter-spacing: -.08em;
      }

      .cls-5 {
        letter-spacing: -.03em;
      }

      .cls-6 {
        letter-spacing: -.08em;
      }

      .cls-7 {
        fill: #0073b8;
      }

      .cls-8 {
        letter-spacing: -.03em;
      }

      .cls-9 {
        letter-spacing: -.08em;
      }
    </style>
  </defs>
  <g id="Layer_1-2" data-name="Layer 1">
    <g>
      <rect class="cls-7" x="1.16" width="72.04" height="87.77"/>
      <text class="cls-1" transform="translate(25.49 42.47)"><tspan class="cls-8" x="0" y="0">Հ</tspan><tspan class="cls-9" x="3.76" y="0">Ա</tspan><tspan class="cls-5" x="8.05" y="0">ՆՈՒՆ</tspan><tspan class="cls-8" x="-17.86" y="7.48">Հ</tspan><tspan class="cls-9" x="-14.1" y="7.48">Ա</tspan><tspan class="cls-5" x="-9.81" y="7.48">ՆՐԱՊԵՏՈՒԹՅ</tspan><tspan class="cls-9" x="32.21" y="7.48">Ա</tspan><tspan class="cls-5" x="36.5" y="7.48">Ն</tspan><tspan class="cls-5" x="-25.49" y="14.95" xml:space="preserve"> ԺՈՂՈՎ</tspan><tspan class="cls-4" x="-2.77" y="14.95">Ր</tspan><tspan class="cls-8" x=".9" y="14.95">Դ</tspan><tspan class="cls-3" x="5.37" y="14.95">Ա</tspan><tspan class="cls-8" x="9.63" y="14.95">ՎԱՐՈՒԹՅ</tspan><tspan class="cls-9" x="38.48" y="14.95">Ա</tspan><tspan class="cls-5" x="42.77" y="14.95">Ն </tspan><tspan class="cls-8" x="-13.07" y="22.43">ՊԱՇՏՊ</tspan><tspan class="cls-9" x="9.6" y="22.43">Ա</tspan><tspan class="cls-5" x="13.89" y="22.43">ՆՆԵՐԻ </tspan><tspan class="cls-8" x="-1.09" y="29.91">ԴԱՇ</tspan><tspan class="cls-9" x="11.83" y="29.91">Ի</tspan><tspan class="cls-5" x="15.49" y="29.91">ՆՔ</tspan><tspan class="cls-8" x="-14.81" y="37.38">ԿՈՒՍ</tspan><tspan class="cls-6" x="-.8" y="37.38">Ա</tspan><tspan class="cls-8" x="3.46" y="37.38">ԿՑՈՒԹՅՈՒՆ</tspan></text>
      <g>
        <path class="cls-2" d="M43.6,7.85h-9.57l.27.49c1.29,1.63,4.37,3.62,5.47,5.15.78,1.09.77,2.05-.1,3.09-3.25,2.37-5.96,6.45-9.03,8.82-2.32,1.78-4.76-.2-3.45-2.6l7.9-7.82-8.16-7.77c-1.33-2.33,0-3.42,2.32-3.61,3.73-.3,12.78-.45,16.32.06,2.31.34,2.41,2.07,2.3,4.1-.22,4.03-4.47,3.7-4.26.1Z"/>
        <path class="cls-2" d="M34.25,30.16h9.14c-.04-1.88,1.55-3.45,3.39-2.43,1.62.9,1.64,6.19-.35,6.64l-18.25.06c-1.65-.35-2.16-2.36-1.06-3.63l9.99-9.56c1.98-1.37,4.27.44,3.35,2.71-.63,1.55-5.26,4.39-6.22,6.22Z"/>
        <path class="cls-2" d="M42.05,17.03c3.36-.77,3.65,3.82.96,4.17s-3.24-3.64-.96-4.17Z"/>
      </g>
    </g>
  </g>
</svg>