<?xml version="1.0" encoding="UTF-8"?>
<svg id="Layer_2" data-name="Layer 2" xmlns="http://www.w3.org/2000/svg" viewBox="0 0 72.04 87.77">
  <defs>
    <style>
      .cls-1 {
        letter-spacing: -.07em;
      }

      .cls-2 {
        font-family: Mardoto-Black, Mardoto;
        font-size: 6.23px;
        font-weight: 800;
      }

      .cls-2, .cls-3 {
        fill: #fff;
      }

      .cls-4 {
        letter-spacing: -.03em;
      }

      .cls-5 {
        letter-spacing: -.08em;
      }

      .cls-6 {
        fill: #0073b8;
      }

      .cls-7 {
        letter-spacing: -.03em;
      }

      .cls-8 {
        letter-spacing: -.08em;
      }
    </style>
  </defs>
  <g id="Layer_1-2" data-name="Layer 1">
    <g>
      <rect class="cls-6" width="72.04" height="87.77"/>
      <text class="cls-2" transform="translate(3.61 43.26)"><tspan class="cls-4" x="0" y="0">ԼՈՒՍ</tspan><tspan class="cls-5" x="13.15" y="0">Ա</tspan><tspan class="cls-7" x="17.41" y="0">ՎՈՐ Հ</tspan><tspan class="cls-1" x="34.9" y="0">Ա</tspan><tspan class="cls-7" x="39.25" y="0">ՅԱՍՏ</tspan><tspan class="cls-8" x="55.78" y="0">Ա</tspan><tspan class="cls-7" x="60.07" y="0">Ն</tspan><tspan class="cls-7" x="5.9" y="7.48">ԿՈՒՍ</tspan><tspan class="cls-5" x="19.91" y="7.48">Ա</tspan><tspan class="cls-7" x="24.17" y="7.48">ԿՑՈՒԹՅՈՒՆ</tspan></text>
      <g>
        <path class="cls-3" d="M47.55,10.29c-.72.51-1.77,4.26-2.62,5.11-.55.55-4.7,2.38-5.08,1.28-.38-1.09,1.29-1.14,1.33-1.64.03-.46-1.08-2.68-1.42-2.93-.57-.42-2.6.52-2.84,1.01-.61,1.24,1.73,4.29,1.42,4.66-.03.03-.66.05-.85.11-.56.17-2.55.69-2.82.97-.59.6-1.22,4.05-1.67,5.01-.03.96,1.92,2.78,2.29,3.87l1.05,6.69c.83-.03,4.95-.56,5.24-1.16.48-4.23.81-8.5,1.45-12.7.5-1.35,3.46-2.65,4.1-3.88.74-1.43.6-4.45,1.27-6.05.25-.43,1.04-.39,1.5-.5.28-.07.48.16.4-.34-.53,0-2.39.22-2.76.48Z"/>
        <path class="cls-3" d="M32.5,23.87c.01-.55,1.3-4.58,1.6-5.07.56-.91,1.8-.65,2.56-1.26-.48-.96-2.72.67-3.25-.07-.5-1.04,1.22-1.03,1.25-1.75.03-.55-1.2-2.7-1.74-2.76-.39-.04-2.33.84-2.5,1.17.04,1.49,1.1,2.68,1.41,4.06-.16.47-2.78.51-3.32,1.34-.19.29-1.47,4.35-1.48,4.69-.02.91,1.46,2.26,1.88,3.08.61,1.18.84,3.52,1.04,4.92.03.24-.15.52-.11.77.02.1.22.12.27.19.08.12.05.33.11.38.29.29,4.68,1.01,4.96.81.12-.09.13-.21.15-.35.28-1.45-.05-4.71-.54-6.11-.43-1.24-2.32-2.79-2.29-4.03Z"/>
        <path class="cls-3" d="M28.73,28.14c-.44-1.19-2.23-2.77-2.22-3.95.62-1.24.9-4.03,1.59-5.06.31-.46,1.24-.51,1.78-.71.17-.06.49-.06.45-.29-.72-.29-3.02,1.15-3.01-.09,0-.82,1.17-.65,1.18-1.32,0-.28-1.11-2.23-1.33-2.34-.52-.26-2.67.74-2.64,1,.07.8,1.52,3.47,1.47,3.66-.1.45-2.49.6-2.94.97-.31.26-1.72,4.5-1.73,5.04.12.33.41.87.63,1.2,1.11,1.65,1.06,1.44,1.8,3.37.43,1.13,3.8,2.84,4.95,3.34.19.09.08.32.7.31.21-.16.09-.65.07-.89-.08-1.03-.42-3.3-.76-4.23Z"/>
        <path class="cls-3" d="M46.36,5.47c.36.27.27.91.79.84-.24-1.48-1.04-1.73-2.41-1.84-2.6-.19-4.97.84-7.49,1-1.43.09-2.82-.17-4.24-.16-.03.24.18.11.33.33,1.07.26,2.48.54,3.58.51,2.35-.07,7.59-2.05,9.44-.68Z"/>
        <path class="cls-3" d="M30.41,4.5c.97.64,1.63,1.74,3.1,1.48.03-.02-.12-.26-.17-.33-.24-.06-.44,0-.78-.13-1-.39-1.46-1.77-2.88-1.37.01.29.47.18.73.35Z"/>
        <path class="cls-3" d="M46.05,8.47c-.51,1.68,1.96,1.3,2.93,1.17-.65-.61-1.52-.44-1.17-1.71.07-.24,2.21-1.43,1.66-2.45-.21.21-.8-.03-.83,0-.04.03-.09.56-.33.92-.5.72-.98.57-1.34.86-.06.05-.89,1.13-.92,1.21Z"/>
        <path class="cls-3" d="M46.32,6.81c-.03-.96-.68-1.42-1.57-1.5-3.05-.29-5.53,2.32-8.58,1.51,1.9,1.78,4.33-.44,6.31-.76.68-.11,1.69-.17,2.34,0,.58.15.86.8,1.49.75Z"/>
        <path class="cls-3" d="M41.99,4.31c.04-.25-.18-.1-.33-.33-.32-.02-.6-.15-.91-.17-.55-.03-1.36.31-2.08,0,.75,1.19,2.21.32,3.33.5Z"/>
        <path class="cls-3" d="M47.32,4.93l.49,1.54c.38-1.03.14-2.08-.99-2.42-.14-.04-1.18-.24-1.25-.24h-2.99c-.16,0-.96-.46-1.08-.33-.04.21.06.34.17.5.44.02.82.14,1.24.17,1.48.11,3.17-.27,4.42.78Z"/>
        <path class="cls-3" d="M50.06,5.98c-.14.37-.04.71-.21,1.12-.2.49-2.16,1.77-.95,2.04,1,.22.62-1.1,1.16-1.66l-.08,1.33c1.17-.19.68-2.18.08-2.83Z"/>
        <path class="cls-3" d="M41.24,3.31v.17c.11-.06.11-.11,0-.17Z"/>
      </g>
    </g>
  </g>
</svg>