<?xml version="1.0" encoding="UTF-8"?>
<svg id="Layer_2" data-name="Layer 2" xmlns="http://www.w3.org/2000/svg" viewBox="0 0 73.41 87.77">
  <defs>
    <style>
      .cls-1 {
        letter-spacing: -.08em;
      }

      .cls-2, .cls-3 {
        fill: #fff;
      }

      .cls-4 {
        letter-spacing: -.08em;
      }

      .cls-3 {
        font-family: Mardoto-Black, Mardoto;
        font-size: 7px;
        font-weight: 800;
      }

      .cls-5 {
        fill: #0073b8;
      }

      .cls-6 {
        letter-spacing: -.08em;
      }

      .cls-7 {
        letter-spacing: -.03em;
      }
    </style>
  </defs>
  <g id="Layer_1-2" data-name="Layer 1">
    <g>
      <rect class="cls-5" x=".81" width="72.04" height="87.77"/>
      <text class="cls-3" transform="translate(0 45.92)"><tspan class="cls-7" x="0" y="0" xml:space="preserve"> ԺՈՂՈՎ</tspan><tspan class="cls-1" x="25.52" y="0">Ր</tspan><tspan class="cls-7" x="29.65" y="0">Դ</tspan><tspan class="cls-6" x="34.67" y="0">Ա</tspan><tspan class="cls-7" x="39.45" y="0">ՎԱՐ</tspan><tspan class="cls-6" x="54.01" y="0">Ա</tspan><tspan class="cls-7" x="58.79" y="0">Կ</tspan><tspan class="cls-4" x="63.26" y="0">Ա</tspan><tspan class="cls-7" x="68.07" y="0">Ն</tspan><tspan class="cls-7" x="7.9" y="7">ԿՈՒՍ</tspan><tspan class="cls-6" x="23.65" y="7">Ա</tspan><tspan class="cls-7" x="28.44" y="7">ԿՑՈՒԹՅ</tspan><tspan class="cls-4" x="55.35" y="7">Ա</tspan><tspan class="cls-7" x="60.17" y="7">Ն</tspan></text>
      <g>
        <g>
          <path class="cls-2" d="M40.63,16.87h-2.55v-5.62c-.08-1.17-.21-2.1-1.6-2.13s-1.57.95-1.63,2.08c-.09,1.86.07,3.8,0,5.67h-2.48l-.07-.17c.19-2.15-.29-4.79.11-6.88.86-4.48,8.2-3.81,8.23.76v6.29Z"/>
          <path class="cls-2" d="M22.45,16.87c-.06-1.78.08-3.6,0-5.38-.02-.46-.06-1.18-.23-1.6-.4-.97-2.12-1.04-2.67-.19-.17.26-.33.91-.33,1.21v5.95h-2.55v-6.24c.11-2.69,2.2-4.11,4.79-3.78,5.08.65,3.18,6.34,3.55,9.85l-.07.17h-2.48Z"/>
          <path class="cls-2" d="M15.36,11.42h-2.6v-1.18c0-.06-.17-.53-.22-.6-.38-.59-1.52-.65-1.98-.15-.58.64-.17,2.27-.34,3.09l.05.1h5.81l-.07,2.17h-5.81s.05.06.05.07v1.83s-.06.07-.05.12h-2.55v-6.24c-.07-3.08,2.84-4.57,5.56-3.53,1.81.69,2.23,2.57,2.16,4.33Z"/>
          <path class="cls-2" d="M60.73,6.99v6.63c0,.08.18.5.23.59.45.72,1.84.67,2.25-.09.05-.09.17-.42.17-.5v-3.37l.07-.07h2.53c-.1,2.27.61,5.34-1.98,6.48s-5.7-.14-5.88-3.23c-.08-1.39.06-2.86,0-4.27h-1.93v-2.17h4.53Z"/>
          <path class="cls-2" d="M52.29,6.99v2.17c1.62,0,3.68-.2,4.62,1.43.18.32.44,1.03.44,1.39v2.77h-2.55v-2.48c0-.32-.51-.89-.84-.89h-1.66v5.5h-2.48l-.07-.07V6.99h2.55Z"/>
          <path class="cls-2" d="M49.16,12.77h-2.55v-2.05c0-.29-.18-.91-.35-1.15-.24-.35-.76-.49-1.17-.47-.86.05-1.22.68-1.28,1.47-.15,1.94.16,4.09,0,6.03,0,.09-.03.17-.05.26h-2.51v-6.87c0-.56.46-1.55.82-1.98,1.36-1.61,4.86-1.65,6.22-.05,1.12,1.32.83,3.19.87,4.8Z"/>
          <polygon class="cls-2" points="28.14 6.99 28.14 14.63 28.21 14.7 31.71 14.7 31.71 16.8 31.63 16.87 25.58 16.87 25.58 6.99 28.14 6.99"/>
        </g>
        <path class="cls-2" d="M66.07,19.05l.06.25v12.78c0,.14-.11.21-.23.25H7.92c-.15,0-.38.02-.4-.17l.03-13.09.13-.07h58.08s.3.05.3.05ZM20.62,25.64h-1.9l-.07-.07v-1.93c0-.36-.27-1.1-.46-1.42-1.27-2.26-5.61-2.24-6.88.02-.15.26-.43,1.03-.43,1.31v2.94l.07.07h2.41l.07-.07v-2.51c0-.28.3-.75.53-.91.44-.3,1.35-.24,1.73.14.13.13.38.65.38.82v6.58h2.55v-2.77c.04-.07.1-.07.17-.08.23-.03.67,0,.92,0,.26,0,.65.12.89-.02v-2.1ZM23.8,20.73h-2.55v6.92c0,.46.42,1.38.7,1.76,1.46,1.98,5.2,1.81,6.42-.37.14-.25.44-1.02.44-1.29v-.89h-2.55c.02.5.01,1.14-.48,1.43s-1.39.24-1.73-.26c-.07-.11-.25-.51-.25-.62v-1.33h5.66c.11-.07.02-.1.02-.12v-2.05h-5.69v-3.18ZM32.67,20.73h-2.55v6.53c0,.3.21,1.01.34,1.3,1.46,3.46,7.65,2.74,7.96-1.16.1-1.28,0-2.77.05-4.1,0-.07-.12-.41.02-.41h1.9v-2.17h-4.53v6.19c0,.12-.16.66-.22.8-.42.9-2.05,1-2.6.24-.19-.27-.36-.95-.36-1.27v-5.95ZM46.17,20.73h-2.55v6.82c0,.29.26,1.06.39,1.34,1.32,2.72,6.03,2.47,7.01-.45.04-.11.17-.57.17-.65v-.94h-2.48c-.14.19-.05.47-.09.73-.19,1.11-1.89,1.17-2.29.26-.03-.06-.15-.45-.15-.48v-1.28h5.66l.07-.07v-2.02l-.07-.07h-5.66v-3.18ZM55.04,20.73h-2.55c.03,2.25-.07,4.52.05,6.77.42,4.19,7.08,4.39,8.13.52.04-.16.16-.61.16-.76v-4.36h1.93v-2.17h-4.48c-.05,1.73.07,3.5,0,5.23-.04.97-.03,2.33-1.28,2.48-.72.08-1.46-.07-1.74-.8-.16-.42-.14-.85-.21-1.29v-5.62Z"/>
      </g>
    </g>
  </g>
</svg>