<?xml version="1.0" encoding="UTF-8"?>
<svg id="Layer_2" data-name="Layer 2" xmlns="http://www.w3.org/2000/svg" viewBox="0 0 72.04 87.77">
  <defs>
    <style>
      .cls-1 {
        letter-spacing: -.08em;
      }

      .cls-2, .cls-3 {
        fill: #fff;
      }

      .cls-3 {
        font-family: Mardoto-Black, Mardoto;
        font-size: 14.64px;
        font-weight: 800;
      }

      .cls-4 {
        letter-spacing: -.03em;
      }

      .cls-5 {
        fill: #0073b8;
      }
    </style>
  </defs>
  <g id="Layer_1-2" data-name="Layer 1">
    <g>
      <rect class="cls-5" width="72.04" height="87.77"/>
      <g>
        <g>
          <path class="cls-2" d="M17.17,12.77s-2.24-1.38-2.93-1.67c-.69-.29-1.27.32-1.27.32l.92-1.31,3.28,2.66Z"/>
          <g>
            <polygon class="cls-2" points="36.94 9.48 39.29 13.02 30.62 4.56 17.77 16.89 20.77 13.02 17.46 15.06 19.29 13.01 13.86 9.24 10.4 13.01 13.19 12.38 3.61 18.06 13.75 8.76 20.39 12.11 30.52 3.77 47.4 15.19 36.94 9.48"/>
            <polygon class="cls-2" points="30.9 7.76 29.32 10.1 30.8 6.09 35.1 11.6 30.9 7.76"/>
          </g>
        </g>
        <g>
          <path class="cls-2" d="M21.1,24.69h-1.33v-4.46c0-.21-.03-.4-.1-.57-.07-.17-.16-.3-.28-.42-.12-.11-.26-.2-.42-.26s-.34-.09-.53-.09-.37.03-.53.09c-.16.06-.3.14-.42.26-.12.11-.21.25-.28.42-.07.17-.1.36-.1.57v4.46h-1.33v-4.41c0-.4.07-.76.21-1.08.14-.32.32-.58.56-.8.24-.22.52-.38.84-.5s.67-.17,1.05-.17.73.06,1.05.17c.32.11.6.28.84.5.24.22.43.48.56.8.14.32.21.68.21,1.08v4.41Z"/>
          <path class="cls-2" d="M25.56,24.69h-3.13v-4.96h1.24v3.89h1.89v1.07Z"/>
          <path class="cls-2" d="M31.36,20.96v1.4c0,.4-.07.76-.2,1.06-.14.3-.32.56-.56.76-.24.2-.52.36-.85.46-.33.1-.68.15-1.05.15s-.73-.06-1.06-.17c-.33-.11-.62-.27-.86-.49-.25-.22-.44-.49-.58-.81-.14-.32-.21-.69-.21-1.11s.07-.76.21-1.07c.14-.31.34-.57.58-.78.25-.21.53-.37.86-.48.33-.11.68-.16,1.06-.16h1.33v-1.89h1.33v1.89h1.07v1.23h-1.07ZM27.35,22.22c0,.24.03.45.1.63.07.18.16.32.28.44s.26.2.43.26c.16.06.34.08.53.08s.37-.02.53-.07c.16-.05.3-.12.42-.22.12-.1.21-.23.28-.38.07-.16.1-.34.1-.55v-1.44h-1.33c-.19,0-.37.02-.53.05-.16.04-.31.11-.43.22-.12.11-.21.25-.28.41s-.1.36-.1.58Z"/>
          <path class="cls-2" d="M38.64,22.25c0,.4-.07.76-.21,1.08-.14.32-.32.58-.56.8s-.52.38-.84.5c-.32.11-.67.17-1.05.17s-.73-.06-1.05-.17c-.32-.11-.6-.28-.84-.5s-.43-.48-.56-.8c-.14-.32-.21-.68-.21-1.08v-4.41h1.33v1.89h4.06v1.23h-4.06v1.34c0,.21.03.4.1.57.07.17.16.3.28.42.12.11.26.2.42.26.16.06.34.09.53.09s.37-.03.53-.09c.16-.06.3-.14.42-.26.12-.11.21-.25.28-.42.07-.17.1-.36.1-.57v-.72h1.33v.68Z"/>
          <path class="cls-2" d="M39.72,20.28c0-.4.07-.76.21-1.08.14-.32.32-.58.56-.8.24-.22.52-.38.84-.5.32-.11.67-.17,1.05-.17s.73.06,1.05.17.6.28.84.5c.24.22.43.48.56.8.14.32.21.68.21,1.08v3.18h1.07v1.23h-2.41v-4.46c0-.21-.03-.4-.1-.57-.07-.17-.16-.3-.28-.42-.12-.11-.26-.2-.42-.26-.16-.06-.34-.09-.53-.09s-.37.03-.53.09c-.16.06-.3.14-.42.26-.12.11-.21.25-.28.42-.07.17-.1.36-.1.57v.59h-1.33v-.55Z"/>
          <path class="cls-2" d="M20.2,33.32h-1.33v-2c0-.12-.02-.25-.07-.36s-.12-.22-.21-.31c-.1-.09-.22-.16-.37-.21-.15-.05-.33-.08-.54-.08h-2.32v-1.23h2.32c.19,0,.35-.02.48-.05s.24-.09.32-.15c.08-.06.14-.14.18-.23.04-.09.06-.19.06-.31,0-.22-.08-.39-.24-.51s-.43-.18-.8-.18h-1.64v-1.23h1.64c.38,0,.72.05,1.02.14.3.09.55.22.76.39s.36.37.47.6c.11.24.16.5.16.78,0,.62-.26,1.06-.78,1.32.17.09.31.19.42.31.11.12.21.25.28.38.07.14.12.27.15.42.03.14.04.28.04.41v2.09Z"/>
          <path class="cls-2" d="M27.28,33.57c-.28-.07-.52-.16-.73-.28-.21-.12-.4-.24-.57-.38-.23.17-.49.3-.78.38-.29.09-.6.13-.93.13-.38,0-.73-.06-1.05-.17-.32-.11-.6-.28-.84-.5s-.43-.48-.56-.8c-.14-.32-.21-.68-.21-1.08v-4.41h1.33v4.46c0,.21.03.4.1.57.07.17.16.3.28.42.12.11.26.2.42.26.16.06.34.09.53.09.28,0,.52-.05.71-.15-.12-.08-.25-.15-.38-.21-.14-.06-.28-.11-.45-.15l.35-1.05c.22.05.41.12.59.21.17.08.34.18.49.28,0-.04.01-.09.01-.13,0-.04,0-.09,0-.13v-4.46h1.33v4.41c0,.21-.02.42-.06.6-.04.19-.1.37-.17.53.14.09.3.18.46.25.16.08.35.14.55.19l-.43,1.1Z"/>
          <path class="cls-2" d="M28.51,29.16h2.76c.17,0,.33-.01.48-.03.14-.02.27-.07.37-.13.1-.06.19-.14.24-.24.06-.1.09-.23.09-.39s-.03-.28-.09-.39c-.06-.11-.14-.2-.25-.26-.11-.07-.23-.12-.38-.15-.14-.03-.3-.04-.47-.04s-.33.01-.48.04c-.14.03-.27.08-.37.14-.1.06-.19.14-.24.23-.06.09-.09.21-.09.34v.09h-1.36v-.06c0-.29.06-.56.18-.8s.29-.44.51-.61c.22-.17.49-.3.8-.39.31-.09.66-.14,1.05-.14s.75.04,1.06.13c.31.09.58.22.8.39.22.17.39.39.51.64s.18.54.18.87c0,.15-.02.29-.06.42-.04.13-.09.25-.16.36-.07.11-.15.21-.24.29-.09.08-.19.15-.3.19.2.08.36.18.49.29.13.12.23.25.31.39.08.14.13.3.16.46s.05.33.05.51c0,.35-.07.65-.22.92-.15.26-.35.48-.6.66-.25.17-.55.31-.89.39-.34.09-.7.13-1.09.13s-.75-.04-1.09-.13c-.34-.09-.64-.22-.89-.39-.26-.17-.46-.39-.6-.66-.15-.26-.22-.57-.22-.92v-.17h1.35v.17c0,.16.03.3.1.42.07.12.17.22.29.3.13.08.28.14.46.18.18.04.38.06.61.06s.42-.02.6-.05c.18-.04.33-.09.45-.17.12-.08.22-.18.29-.3.07-.12.1-.26.1-.43s-.02-.31-.07-.44c-.05-.12-.13-.23-.24-.31-.11-.08-.26-.14-.44-.18-.18-.04-.41-.06-.69-.06h-2.76v-1.18Z"/>
          <path class="cls-2" d="M40.96,33.57c-.28-.07-.52-.16-.73-.28-.21-.12-.4-.24-.57-.38-.23.17-.49.3-.78.38-.29.09-.6.13-.93.13-.38,0-.73-.06-1.05-.17-.32-.11-.6-.28-.84-.5s-.43-.48-.56-.8c-.14-.32-.21-.68-.21-1.08v-4.41h1.33v4.46c0,.21.03.4.1.57.07.17.16.3.28.42.12.11.26.2.42.26.16.06.34.09.53.09.28,0,.52-.05.71-.15-.12-.08-.25-.15-.38-.21-.14-.06-.28-.11-.45-.15l.35-1.05c.22.05.41.12.59.21.17.08.34.18.49.28,0-.04.01-.09.01-.13,0-.04,0-.09,0-.13v-4.46h1.33v4.41c0,.21-.02.42-.06.6-.04.19-.1.37-.17.53.14.09.3.18.46.25.16.08.35.14.55.19l-.43,1.1Z"/>
          <path class="cls-2" d="M47.65,30.89c0,.4-.07.76-.21,1.08-.14.32-.32.58-.56.8s-.52.38-.84.5c-.32.11-.67.17-1.05.17s-.73-.06-1.05-.17c-.32-.11-.6-.28-.84-.5s-.43-.48-.56-.8c-.14-.32-.21-.68-.21-1.08v-4.41h1.33v4.46c0,.21.03.4.1.57.07.17.16.3.28.42.12.11.26.2.42.26.16.06.34.09.53.09s.37-.03.53-.09c.16-.06.3-.14.42-.26.12-.11.21-.25.28-.42.07-.17.1-.36.1-.57v-4.46h1.33v4.41Z"/>
          <path class="cls-2" d="M48.77,30.96h1.35v.36c0,.17.04.31.12.43.08.12.19.22.32.3.13.08.29.14.47.18.18.04.36.06.56.06.47,0,.82-.08,1.04-.23.22-.15.34-.36.34-.63,0-.15-.04-.28-.12-.39s-.19-.2-.34-.28c-.14-.08-.32-.15-.51-.21s-.41-.12-.65-.17c-.2-.05-.39-.1-.58-.15-.19-.05-.37-.11-.54-.18-.17-.07-.33-.16-.47-.25-.14-.1-.27-.21-.37-.35-.1-.14-.19-.3-.24-.48-.06-.19-.09-.4-.09-.65,0-.29.06-.56.18-.8.12-.24.29-.44.5-.61.22-.17.48-.3.78-.39.3-.09.64-.14,1.01-.14.4,0,.76.04,1.08.13.32.09.59.22.81.39s.39.38.51.64c.12.25.18.55.18.88v.3h-1.36v-.3c0-.29-.1-.51-.31-.67-.2-.15-.51-.23-.92-.23-.19,0-.36.02-.5.07-.14.04-.25.1-.34.18-.09.07-.15.16-.19.25-.04.1-.06.2-.06.31,0,.15.04.27.11.36.07.1.17.18.3.25.13.07.28.13.47.18.18.05.39.1.62.15.33.08.65.17.95.27.3.1.56.24.78.4s.4.36.53.6.2.52.2.85c0,.31-.06.59-.18.84-.12.25-.3.47-.53.64s-.53.32-.88.42c-.35.1-.75.15-1.21.15-.4,0-.78-.05-1.12-.14-.34-.09-.64-.23-.89-.4-.25-.18-.44-.4-.59-.66-.14-.26-.21-.56-.21-.9v-.36Z"/>
          <path class="cls-2" d="M61.18,33.57c-.28-.07-.52-.16-.73-.28-.21-.12-.4-.24-.57-.38-.23.17-.49.3-.78.38-.29.09-.6.13-.93.13-.38,0-.73-.06-1.05-.17-.32-.11-.6-.28-.84-.5s-.43-.48-.56-.8c-.14-.32-.21-.68-.21-1.08v-4.41h1.33v4.46c0,.21.03.4.1.57.07.17.16.3.28.42.12.11.26.2.42.26.16.06.34.09.53.09.28,0,.52-.05.71-.15-.12-.08-.25-.15-.38-.21-.14-.06-.28-.11-.45-.15l.35-1.05c.22.05.41.12.59.21.17.08.34.18.49.28,0-.04.01-.09.01-.13,0-.04,0-.09,0-.13v-4.46h1.33v4.41c0,.21-.02.42-.06.6-.04.19-.1.37-.17.53.14.09.3.18.46.25.16.08.35.14.55.19l-.43,1.1Z"/>
          <path class="cls-2" d="M68.43,30.89c0,.4-.07.76-.21,1.08-.14.32-.32.58-.56.8s-.52.38-.84.5c-.32.11-.67.17-1.05.17s-.73-.06-1.05-.17c-.32-.11-.6-.28-.84-.5s-.43-.48-.56-.8c-.14-.32-.21-.68-.21-1.08v-3.18h-1.07v-1.23h2.41v4.46c0,.21.03.4.1.57.07.17.16.3.28.42.12.11.26.2.42.26.16.06.34.09.53.09s.37-.03.53-.09c.16-.06.3-.14.42-.26.12-.11.21-.25.28-.42.07-.17.1-.36.1-.57v-.57h1.33v.52Z"/>
        </g>
      </g>
      <text class="cls-3" transform="translate(7.01 51.78)"><tspan class="cls-4" x="0" y="0">ԴԱՇ</tspan><tspan class="cls-1" x="30.34" y="0">Ի</tspan><tspan class="cls-4" x="38.95" y="0">ՆՔ </tspan></text>
    </g>
  </g>
</svg>