<?xml version="1.0" encoding="UTF-8"?>
<svg id="Layer_2" data-name="Layer 2" xmlns="http://www.w3.org/2000/svg" viewBox="0 0 72.04 87.77">
  <defs>
    <style>
      .cls-1 {
        letter-spacing: -.08em;
      }

      .cls-2, .cls-3 {
        fill: #fff;
      }

      .cls-4 {
        letter-spacing: -.07em;
      }

      .cls-5 {
        letter-spacing: -.08em;
      }

      .cls-3 {
        font-family: Mardoto-Black, Mardoto;
        font-size: 7px;
        font-weight: 800;
      }

      .cls-6 {
        fill: #0073b8;
      }

      .cls-7 {
        letter-spacing: -.08em;
      }

      .cls-8 {
        letter-spacing: -.03em;
      }
    </style>
  </defs>
  <g id="Layer_1-2" data-name="Layer 1">
    <g>
      <rect class="cls-6" width="72.04" height="87.77"/>
      <text class="cls-3" transform="translate(16.37 45.92)"><tspan class="cls-8" x="0" y="0">Հ</tspan><tspan class="cls-4" x="4.22" y="0">Ա</tspan><tspan class="cls-8" x="9.11" y="0">ՅԱՍՏ</tspan><tspan class="cls-1" x="27.68" y="0">Ա</tspan><tspan class="cls-8" x="32.5" y="0">ՆԻ</tspan><tspan class="cls-8" x="-9.76" y="7">ՇՆՈՐՀԱՊԵՏ</tspan><tspan class="cls-7" x="32.65" y="7">Ա</tspan><tspan class="cls-8" x="37.43" y="7">Կ</tspan><tspan class="cls-5" x="41.9" y="7">Ա</tspan><tspan class="cls-8" x="46.72" y="7">Ն</tspan><tspan class="cls-8" x="-7.66" y="14">ԿՈՒՍ</tspan><tspan class="cls-7" x="8.1" y="14">Ա</tspan><tspan class="cls-8" x="12.88" y="14">ԿՑՈՒԹՅ</tspan><tspan class="cls-5" x="39.8" y="14">Ա</tspan><tspan class="cls-8" x="44.62" y="14">Ն</tspan></text>
      <path class="cls-2" d="M35.37,4.29v9.82s.06.05.06.05l1.23-1.24,1.28,1.24V4.29h1.35v10.82h2.75l.04.04s-.02.02-.02.03v2.68l21.67.04v1.35h-20.69s1.24,1.28,1.24,1.28l-1.24,1.24h20.69v1.37l-21.67.04v2.75l-2.69-.03-.07.05v10.78h-1.36v-9.84s-1.28,1.27-1.28,1.27l-1.28-1.24v9.81h-1.35v-10.78s-.03-.03-.03-.03c-.74,0-1.5-.03-2.24-.01-.16,0-.35.08-.49-.01v-2.71l-21.65-.04v-1.35l20.62.03.03-.06-1.22-1.25,1.24-1.26H9.61v-1.35h21.65v-2.75l.04-.04h2.72V4.29h1.35ZM37.91,15.12l-1.28-1.24-1.23,1.24h2.51ZM31.93,15.83v1.76l1.8-1.79-1.71-.02-.1.04ZM41.38,15.82h-1.78s1.78,1.78,1.78,1.78v-1.78ZM37.37,20.36c1.04-.08,2.03-.92,2.11-1.99.13-1.55-1.08-2.66-2.61-2.47-.04,0-.08.01-.04.06,1.25.56,1.84,2.1,1.3,3.37-.17.41-.45.73-.77,1.02ZM37.05,16.88c-.93-1.02-2.5-.96-3.39.08-.02.03-.16.19-.14.21,1.49-.61,3.16.33,3.49,1.88.05.25.1.53.04.78h.06c.09-.14.21-.28.29-.44.42-.83.29-1.83-.34-2.52ZM37.89,20.92c-.19.02-.41-.01-.61,0l.26.2c2.56,1.51,4.89-1.99,2.47-3.73.35,1.03.07,2.2-.76,2.92-.34.29-.92.56-1.37.61ZM32.02,19.64c-.02.2,0,.47,0,.68,0,0,.05.05.06.04.79-1.74,3.07-2.04,4.34-.61.02.03.04.04.06,0-.12-1.44-1.51-2.4-2.9-1.97-.8.25-1.47,1.02-1.55,1.86ZM31.26,21.8v-2.54l-1.27,1.28,1.27,1.26ZM42.05,19.29v2.51l1.27-1.26-1.27-1.25ZM35.41,20.13c.18-.02.39.01.58,0l-.33-.25c-2.59-1.41-4.74,2.08-2.38,3.8-.4-1.06-.11-2.2.75-2.93.34-.29.94-.57,1.38-.62ZM36.47,25.09c-.52-.18-.98-.64-1.23-1.12-.57-1.07-.3-2.47.64-3.23,0-.08-.02-.02-.05-.02-1.04.07-1.96.94-2.04,1.99-.11,1.54,1.13,2.63,2.64,2.44.04,0,.09-.02.04-.06ZM36.84,21.26c.04,1.05.93,2.03,1.99,2.11,1.5.12,2.57-1.02,2.47-2.49,0-.04-.01-.17-.06-.18-.67,1.55-2.74,2.03-4.04.93l-.35-.37ZM36.27,21.84c-.02-.21.02-.45,0-.66-.94,1.03-.69,2.71.52,3.42,1.03.6,2.37.29,3.01-.71-1.32.5-2.86-.18-3.37-1.49-.05-.13-.14-.41-.16-.55ZM31.93,23.46v1.76c.04.06.06.01.07.01h1.63s.04.04.07.03v-.06s-1.78-1.75-1.78-1.75ZM41.38,25.23v-1.78l-1.73,1.78h1.73ZM37.91,25.91h-2.51s1.25,1.3,1.25,1.3l1.25-1.3Z"/>
    </g>
  </g>
</svg>