<?xml version="1.0" encoding="UTF-8"?>
<svg id="Layer_2" data-name="Layer 2" xmlns="http://www.w3.org/2000/svg" viewBox="0 0 72.04 87.77">
  <defs>
    <style>
      .cls-1, .cls-2 {
        fill: #fff;
      }

      .cls-2 {
        font-family: Mardoto-Black, Mardoto;
        font-size: 7px;
        font-weight: 800;
      }

      .cls-3 {
        fill: #0073b8;
      }

      .cls-4 {
        letter-spacing: -.08em;
      }

      .cls-5 {
        letter-spacing: -.03em;
      }
    </style>
  </defs>
  <g id="Layer_1-2" data-name="Layer 1">
    <g>
      <rect class="cls-3" width="72.04" height="87.77"/>
      <text class="cls-2" transform="translate(21.44 45.92)"><tspan class="cls-5"><tspan x="0" y="0">ՆՈՐ ՈՒԺ </tspan></tspan><tspan class="cls-5" x="-15.21" y="7">ԿՈՒՍ</tspan><tspan class="cls-4" x=".54" y="7">Ա</tspan><tspan class="cls-5" x="5.33" y="7">ԿՑՈՒԹՅՈՒՆ</tspan></text>
      <g>
        <path class="cls-1" d="M43.14,14.99c.31-.11,2.27-.8,2.33-.97l-.02-7.61c-1.59-.63-3.15-1.36-4.74-1.97-.14-.06-.29-.05-.42-.1-.35-.13-1.01-.51-1.33-.54-.24-.03-1.17.42-1.48.54-.32.12-.67.18-.99.35-.07.04-.14,0-.11.12l6.78,2.8v7.39ZM38.76,9.71v6.95s-.09.07-.06.09c.08,0,.16,0,.24-.03.5-.15,1.42-.55,1.91-.78.07-.03.22-.09.24-.16l-.02-7.27-6.9-2.8c-.14-.03-.26.03-.39.07-.54.17-1.43.55-1.95.79-.09.04-.22.08-.25.19l7.18,2.95ZM34.14,11.98v6.69l2.28-.97v-6.9s-7.41-3.04-7.41-3.04l-2.58,1.01,7.71,3.21ZM31.81,13.24l-8.15-3.33c-.14.09-.03.12-.03.14v18.81l12.32,5.03,12.47-5,.03-12.5-2.11-.26-9.22,3.73-.05,2.53,1.99.76,5.83-2.68v6.34c-.07.08-.16.11-.25.16-1.06.55-2.58,1.07-3.72,1.54-1.63.67-3.28,1.32-4.93,1.96l-8.85-3.62v-11.74c.25.08,1.69.59,1.74.74l.02,6.2,2.91,1.18v-9.99Z"/>
        <path class="cls-1" d="M31.81,13.24v9.99l-2.91-1.18-.02-6.2c-.05-.15-1.49-.66-1.74-.74v11.74l8.85,3.62c1.65-.64,3.3-1.28,4.93-1.96,1.14-.47,2.66-.99,3.72-1.54.09-.05.18-.08.25-.16v-6.34l-5.83,2.68-1.99-.76.05-2.53,9.22-3.73,2.11.26-.03,12.5-12.47,5-12.32-5.03V10.06s-.12-.05.03-.14l8.15,3.33Z"/>
        <path class="cls-1" d="M43.14,14.99v-7.39l-6.78-2.8c-.03-.12.05-.08.11-.12.32-.17.67-.23.99-.35.3-.12,1.24-.57,1.48-.54.32.04.98.41,1.33.54.13.05.28.05.42.1,1.6.61,3.16,1.34,4.74,1.97l.02,7.61c-.06.18-2.01.87-2.33.97Z"/>
        <polygon class="cls-1" points="34.14 11.98 26.43 8.77 29.02 7.76 36.41 10.8 36.42 17.7 34.14 18.67 34.14 11.98"/>
        <path class="cls-1" d="M38.76,9.71l-7.18-2.95c.03-.1.16-.14.25-.19.52-.24,1.42-.62,1.95-.79.13-.04.25-.1.39-.07l6.9,2.8.02,7.27c-.02.08-.17.13-.24.16-.49.23-1.41.63-1.91.78-.08.02-.15.04-.24.03-.03-.02.06-.07.06-.09v-6.95Z"/>
      </g>
    </g>
  </g>
</svg>