<?xml version="1.0" encoding="UTF-8"?>
<svg id="Layer_2" data-name="Layer 2" xmlns="http://www.w3.org/2000/svg" viewBox="0 0 72.04 87.77">
  <defs>
    <style>
      .cls-1, .cls-2 {
        fill: #fff;
      }

      .cls-3 {
        letter-spacing: -.08em;
      }

      .cls-2 {
        font-family: Mardoto-Black, Mardoto;
        font-size: 7px;
        font-weight: 800;
      }

      .cls-4 {
        fill: #0073b8;
      }

      .cls-5 {
        letter-spacing: -.08em;
      }

      .cls-6 {
        letter-spacing: -.03em;
      }
    </style>
  </defs>
  <g id="Layer_1-2" data-name="Layer 1">
    <g>
      <rect class="cls-4" width="72.04" height="87.77"/>
      <text class="cls-2" transform="translate(9.81 45.92)"><tspan class="cls-6" x="0" y="0">ՄԻԱՍՆՈՒԹՅ</tspan><tspan class="cls-3" x="42.26" y="0">Ա</tspan><tspan class="cls-6" x="47.08" y="0">Ն</tspan><tspan class="cls-6"><tspan x="13.71" y="7">ԹԵՎԵՐ</tspan></tspan><tspan class="cls-6" x="-3.58" y="14">ԿՈՒՍ</tspan><tspan class="cls-5" x="12.17" y="14">Ա</tspan><tspan class="cls-6" x="16.95" y="14">ԿՑՈՒԹՅՈՒՆ</tspan></text>
      <g>
        <path class="cls-1" d="M50.35,12.32h-6.79l-2.05,2.37c1.02,2.01,1.7,4.2,1.72,6.48,2.59.28,2.55-2.86,5.15-3.08.63-.05,4.19.11,4.37,0,.22-.61.44-1.25.4-1.91h-3.8c-.12,0-.75-.27-.87-.38-.74-.68-.27-2.03.77-2.12,2.37-.22,5.59.76,7.2-1.56.16-.22.68-1.39.79-1.42.28-.07.41.73.43.92.19,1.91-.93,3.6-2.68,4.3-.08,1-.19,1.9-.58,2.84-1.12,2.76-3.76,3.23-2.76,7.06.09.36.54,1.1.53,1.29-.01.18-.44.96-.56,1.18-.63,1.12-1.54,2.05-2.49,2.9-2.69-.06-5.74.7-7.25-2.14-.94-1.79-.33-6.35-.48-8.57-.13-2.07-.97-4.15-2.11-5.85l3.33-3.99,5.75-.02c.75.46,1.42,1.05,1.98,1.73ZM51.41,19.82h-2.74c-1.1,0-2.44,2.58-3.33,3.22-.61.44-1.37.62-2.11.53.22,1.52-.55,3.99.61,5.16.25.25.82.55,1.18.6.39.05,3.29.06,3.5-.04.27-.12,1.66-1.94,1.71-2.23.01-.07-.37-1.03-.42-1.28-.3-1.48-.14-3.02.55-4.37l1.05-1.6Z"/>
        <path class="cls-1" d="M40.15,34.93h-1.68s-.14-.13-.14-.14v-14.44c0-3.58-4.45-7.82-8.03-7.94h-14.44c-.28-.05-1.46-1.41-1.49-1.69-.03-.24.36-.21.53-.24,4.79.21,9.78-.26,14.54,0,5.77.32,10.23,4.36,10.73,10.15v14.3Z"/>
        <path class="cls-1" d="M24.84,9.24c.76-.66,1.79-1.23,2.69-1.69,8.5-4.3,20.56-4.59,26.66,3.86.1.13.51.58.39.72-.52.12-1.42.36-1.92.14-.16-.07-1.05-1.16-1.3-1.4-6.08-5.72-14.85-5.51-22.06-2.23-.18.08-.94.6-1.04.6h-3.42Z"/>
        <path class="cls-1" d="M36.01,17.42c.32.82.85,1.6.87,2.5h-14.77c-.57-.57-1.16-1.23-1.68-1.88-.14-.17-.35-.41-.39-.62h15.98Z"/>
        <path class="cls-1" d="M30.38,13.66c1.37.15,2.84.97,3.86,1.76l.61.74-15.97-.05c-.51-.58-1.05-1.14-1.54-1.73-.16-.2-.42-.48-.48-.72h13.52Z"/>
        <path class="cls-1" d="M37.07,21.17v2.36s-.13.14-.14.14h-11.74c-.55-.68-1.28-1.37-1.78-2.07-.09-.13-.22-.25-.19-.43h13.86Z"/>
        <polygon class="cls-1" points="37.07 24.92 37.07 27.43 28.36 27.43 26.43 25.21 26.29 24.92 37.07 24.92"/>
        <path class="cls-1" d="M37.07,28.68v2.5h-5.68c-.45-.81-1.21-1.48-1.78-2.21-.08-.1-.18-.12-.14-.29h7.6Z"/>
        <path class="cls-1" d="M37.07,32.43v2.5h-2.45c-.5-.65-1.09-1.23-1.59-1.88-.14-.18-.36-.4-.39-.62h4.43Z"/>
        <path class="cls-1" d="M47.17,24.54c.05.23-.08,1.01.01,1.14.03.04.34.08.46.16,1.46.99-.16,2.94-1.62,2.01-1.56-.99-.59-3.33,1.15-3.32Z"/>
      </g>
    </g>
  </g>
</svg>