<?xml version="1.0" encoding="UTF-8"?>
<svg id="Layer_2" data-name="Layer 2" xmlns="http://www.w3.org/2000/svg" viewBox="0 0 72.04 87.77">
  <defs>
    <style>
      .cls-1 {
        letter-spacing: -.08em;
      }

      .cls-2, .cls-3 {
        fill: #fff;
      }

      .cls-4 {
        letter-spacing: -.07em;
      }

      .cls-5 {
        letter-spacing: -.08em;
      }

      .cls-3 {
        font-family: Mardoto-Black, Mardoto;
        font-size: 7px;
        font-weight: 800;
      }

      .cls-6 {
        fill: #0073b8;
      }

      .cls-7 {
        letter-spacing: -.08em;
      }

      .cls-8 {
        letter-spacing: -.03em;
      }
    </style>
  </defs>
  <g id="Layer_1-2" data-name="Layer 1">
    <g>
      <rect class="cls-6" width="72.04" height="87.77"/>
      <g>
        <path class="cls-2" d="M28.71,19.87c.1,0,.18-.04.28-.04,1.77-.06,3.68,0,5.45.09,10.87.55,21.77,3.54,30.93,9.44.83.54,2.23,1.39,2.92,2.05.04.04.11.07.09.13l-.07.11h-.1c-5.46-3.51-11.73-5.7-18.09-6.97-8.52-1.7-17.67-1.95-26.27-.7-3.65.53-7.25,1.39-10.75,2.54,6.65-6.76,14.39-12.5,22.96-16.63.02-.09-.04-.1-.1-.14-.78-.46-3.01-.76-3.94-.81-.59-.03-1.18.02-1.77,0-.05,0-.16.03-.15-.04,1.51-.56,3.05-1.05,4.65-1.29,1.9-.29,3.8-.25,5.69.09.37.07,1.02.17,1.34.3.06.02.1.05.03.1-3.86,2.22-7.44,5.16-10.44,8.44-.79.86-2,2.19-2.59,3.16-.03.05-.08.09-.07.17Z"/>
        <path class="cls-2" d="M18.77,20.17c-.56-.57-1.27-1.12-2.1-1.2-2.94-.29-6.45,3.08-8.25,5.13-1.21,1.38-2.31,2.87-3.31,4.41l2.86-1.87c2-1.19,4.08-2.29,6.31-2.98l.95-.22-3.55,3.45c-3.85,1.56-7.46,3.7-10.33,6.72,1.53-3.82,3.55-7.5,6.08-10.75,1.86-2.4,5.92-7.02,9.35-5.64,1.2.48,1.93,1.69,1.99,2.96Z"/>
        <path class="cls-2" d="M70.69,27.78c-4.06-1.5-8.18-2.84-12.41-3.82-1.32-.31-2.74-.49-4.02-.82-1.08-.27-2.31-.82-3.42-1.16-4.63-1.4-9.45-2.23-14.28-2.58-.38-.03-.79-.01-1.17-.04-.05,0-.23-.02-.24-.09l3.09-.22c.27,0,.55,0,.82,0,10.97-.35,20.49,2.25,29.92,7.68.57.33,1.15.67,1.7,1.04Z"/>
      </g>
      <text class="cls-3" transform="translate(16.45 43.12)"><tspan class="cls-8" x="0" y="0">ԲԱՐԳ</tspan><tspan class="cls-7" x="19.09" y="0">Ա</tspan><tspan class="cls-8" x="23.88" y="0">ՎԱՃ</tspan><tspan class="cls-8" x=".65" y="8.4">Հ</tspan><tspan class="cls-4" x="4.88" y="8.4">Ա</tspan><tspan class="cls-8" x="9.76" y="8.4">ՅԱՍՏ</tspan><tspan class="cls-1" x="28.34" y="8.4">Ա</tspan><tspan class="cls-8" x="33.16" y="8.4">Ն</tspan><tspan class="cls-8" x="-9.23" y="16.8">ԿՈՒՍ</tspan><tspan class="cls-7" x="6.52" y="16.8">Ա</tspan><tspan class="cls-8" x="11.3" y="16.8">ԿՑՈՒԹՅ</tspan><tspan class="cls-5" x="38.22" y="16.8">Ա</tspan><tspan class="cls-8" x="43.04" y="16.8">Ն</tspan></text>
    </g>
  </g>
</svg>