<?xml version="1.0" encoding="UTF-8"?>
<svg id="Layer_2" data-name="Layer 2" xmlns="http://www.w3.org/2000/svg" viewBox="0 0 72.04 87.77">
  <defs>
    <style>
      .cls-1 {
        letter-spacing: -.05em;
      }

      .cls-2 {
        letter-spacing: -.1em;
      }

      .cls-3, .cls-4 {
        fill: #fff;
      }

      .cls-5 {
        letter-spacing: -.09em;
      }

      .cls-6 {
        letter-spacing: -.1em;
      }

      .cls-7 {
        letter-spacing: -.05em;
      }

      .cls-4 {
        font-family: Mardoto-Black, Mardoto;
        font-size: 7px;
        font-weight: 800;
      }

      .cls-8 {
        fill: #0073b8;
      }

      .cls-9 {
        letter-spacing: -.1em;
      }
    </style>
  </defs>
  <g id="Layer_1-2" data-name="Layer 1">
    <g>
      <rect class="cls-8" width="72.04" height="87.77"/>
      <text class="cls-4" transform="translate(18.84 43.12)"><tspan class="cls-7" x="0" y="0">ԱԶԳ</tspan><tspan class="cls-5" x="14.46" y="0">Ա</tspan><tspan class="cls-7" x="19.2" y="0">Յ</tspan><tspan class="cls-6" x="23.66" y="0">Ի</tspan><tspan class="cls-7" x="27.63" y="0">Ն </tspan><tspan class="cls-7" x="-17.78" y="8.4">ԺՈՂՈՎ</tspan><tspan class="cls-6" x="5.51" y="8.4">Ր</tspan><tspan class="cls-7" x="9.5" y="8.4">Դ</tspan><tspan class="cls-2" x="14.38" y="8.4">Ա</tspan><tspan class="cls-7" x="19.02" y="8.4">ՎԱՐ</tspan><tspan class="cls-9" x="33.16" y="8.4">Ա</tspan><tspan class="cls-1" x="37.8" y="8.4">Կ</tspan><tspan class="cls-6" x="42.13" y="8.4">Ա</tspan><tspan class="cls-7" x="46.8" y="8.4">Ն</tspan><tspan class="cls-7"><tspan x="5.51" y="16.8">ԲԵՎԵՌ</tspan></tspan></text>
      <g>
        <path class="cls-3" d="M29.19,8.78l.71-.37c.08-.67.02-1.5.96-1.24-.03-.25-.25-.44-.02-.68l.27-.03c.38.88.31.48.68.02.51-.62,1.73-.39,2.34-.01.46.28.81.85,1.23,1.06.17.09.48.07.5.31.04.53-.75,0-.89.2l-.03.25h-.24c.07.37-.28.41-.38.65-.08.2-.03.37-.07.55-.03.13-.33.69-.29.73.3-.12.64-.04.96-.06,1.1-.07,1.51-.31,2.56.28.13.08.34.3.42.32.25.07.93-.07,1.29-.05.49.04,1.04.34,1.37.37.22.02.71-.16.99-.18.96-.08,1.79.25,2.66.25.19,0,.29-.14.44-.17.19-.04.39.01.58-.04.15-.04.2-.27.34-.4.18-.16.42-.23.64-.29-.41-2.75-2.46-5.59-4.71-7.17-.19-.13-1.24-.72-1.28-.79-.05-.08-.15-.63.07-.6.61.6,1.4.9,2.1,1.37,2,1.34,3.69,3.64,4.39,5.94.1.31.21,1.11.31,1.3.06.12.21.15.3.26.3.36.32,1.45.14,1.87-.06.13-.21.2-.25.37-.07.32-.03.95-.08,1.34-.37,2.89-1.45,5.14-3.42,7.26-.41.44-.91.82-1.27,1.28.01.06.5.5.57.67.1.26,0,.54.1.83.15.49,1.01,1.53,1.32,2.08.56.98,1.39,3.27,2.63,3.49.8.14,1.22.06,1.97.57.46.31.72.97,1.21,1.14.19.06.42.04.59.15.26.17.23.65.43.87.23.27.65.16.89.53.09.13.37.95.16.95H19.6c-.02-.6.2-1.16.65-1.55.13-.12.28-.14.43-.31.22-.23.31-.59.56-.81.28-.24.57-.21.87-.37s.48-.51.79-.63c.52-.22,1.02,0,1.57-.28.75-.39,1-1.94,1.31-2.72.29-.73.76-1.68,1.22-2.3.13-.17.39-.34.49-.51.2-.34.22-.76.65-1.02,0-.15-.69-.08-.83-.09-.34-.04-.77-.08-.95-.41-.08-.15-.1-.45-.21-.56-.22-.22-.73-.12-.97-.48-.18-.27-.18-.99-.03-1.26s.6-.35.81-.58c.17-.19.19-.49.37-.72.13-.17.42-.27.47-.4.29-.73-.41-2.55-.17-2.95.13-.28,1.86-.37,1.83-.46l-1.06-1.75c-.76,0-2.61-.26-2.71-1.22-.06-.59.34-1.11.86-1.34v-.08s-1.04-1.64-1.04-1.64l.62.03.15-.72,1.22,1.84.61-.05s-.17-.67-.22-.74c-.1-.14-.52-.32-.58-.42-.13-.23-.58-1.63-.62-1.9,0-.04-.02-.1.03-.09l.68.43.4-.8.61,1.96c-.2.59-.25.88,0,1.47l1.12-.03v-1.02c0-.09.3-.42.34-.53.08-.23.06-1.98-.04-2.19-.04-.08-.3-.35-.3-.38v-2.32l.62.68.56-.68c-.14.68.03,1.46-.08,2.12-.06.36-.42.6-.42.64v1.95ZM46.26,12.75c-1.6-.56-3.22.51-4.79.37-.21-.02-.37-.12-.55-.13-1.56-.1-3.14.14-4.67-.25.04.36.11.77.06,1.14-.03.25-.23.46-.25.69s.11.45.13.68c.02.24-.07.73-.05.86,0,.04.4.55.47.7.31.61.62,2.13,1.14,2.45.27.16.67.28.97.45,1.18.66,2.27,1.65,3.28,2.54.05.04.08.02.12,0,.18-.09,1.02-1.05,1.21-1.27.78-.92,1.6-2.07,2.08-3.18.66-1.53.86-3.39.85-5.05ZM29.69,16.52c.07.07,1.54-.6,1.67-.77.23-.3-.48-.54-.68-.69-.21-.15-.54-.4-.72-.58-.17-.17-.54-.81-.59-.84-.09-.06-.23-.03-.34-.03-.12.02.01,1.7-.04,1.92h.42s.26.99.26.99ZM28.62,13.74s-.29-.05-.24.08l.31.78c0-.16.04-.79-.07-.86ZM28.07,13.8c-.08,0-.35-.07-.3.08l.68,1.02-.38-1.11ZM35.74,23.09c-.12.03-.77.63-.91.76-.89.81-1.66,1.78-3.06,1.64-.46-.05-1.22-.6-1.5-.52-.65.18-1.57,2.16-2.01,2.77-.72,1.01-1.9,1.78-1.4,3.27.21.61.78.29,1.14.46.16.07.29.47.48.63.43.37.86.25,1.35.33s1.04.34,1.52.46c1.49.38,2.84.43,4.36.19.53-.09,1.17-.33,1.69-.35,1-.05,1.6.36,2.67-.24.22-.12.42-.38.65-.46.22-.08.53-.05.72-.14s.34-.4.65-.53c.64-.26,1.7.11,1.77-.83.12-1.74-2.4-2.26-2.77-3.86-.13-.57,0-1.17-.29-1.69-1.42-.38-2.8-.88-4.13-1.5-.23-.1-.71-.46-.93-.4Z"/>
        <path class="cls-3" d="M28.07,13.8l.38,1.11-.68-1.02c-.05-.16.22-.09.3-.08Z"/>
        <path class="cls-3" d="M28.62,13.74c.11.07.06.7.07.86l-.31-.78c-.05-.13.19-.11.24-.08Z"/>
      </g>
    </g>
  </g>
</svg>