<?xml version="1.0" encoding="UTF-8"?>
<svg id="Layer_2" data-name="Layer 2" xmlns="http://www.w3.org/2000/svg" viewBox="0 0 72.04 87.77">
  <defs>
    <style>
      .cls-1 {
        letter-spacing: -.1em;
      }

      .cls-2, .cls-3 {
        fill: #fff;
      }

      .cls-4 {
        letter-spacing: -.09em;
      }

      .cls-5 {
        letter-spacing: -.1em;
      }

      .cls-6 {
        letter-spacing: -.05em;
      }

      .cls-3 {
        font-family: Mardoto-Black, Mardoto;
        font-size: 7px;
        font-weight: 800;
      }

      .cls-7 {
        fill: #0073b8;
      }

      .cls-8 {
        letter-spacing: -.03em;
      }
    </style>
  </defs>
  <g id="Layer_1-2" data-name="Layer 1">
    <g>
      <rect class="cls-7" width="72.04" height="87.77"/>
      <text class="cls-3" transform="translate(4.76 43.12)"><tspan class="cls-6" x="0" y="0">ՔՈՉԱՐԻ ԱԶԳ</tspan><tspan class="cls-4" x="42.69" y="0">Ա</tspan><tspan class="cls-6" x="47.44" y="0">Յ</tspan><tspan class="cls-1" x="51.89" y="0">Ի</tspan><tspan class="cls-6" x="55.87" y="0">Ն </tspan><tspan class="cls-6" x="2.64" y="8.4">ՎԵՐԱԾՆՈՒ</tspan><tspan class="cls-5" x="37.84" y="8.4">Ն</tspan><tspan class="cls-6" x="42.48" y="8.4">Դ ԵՎ </tspan><tspan class="cls-6" x="3.95" y="16.8">ԱԶ</tspan><tspan class="cls-8" x="13.53" y="16.8">Գ</tspan><tspan class="cls-6" x="18.57" y="16.8">Ի ԶԱՐԹՈՆՔ</tspan></text>
      <g>
        <path class="cls-2" d="M38.48,2.8v.05c0,.08,0,.16,0,.24-.08.2-.26.33-.33.52-.16.08-.04.02-.09.09-.04.01-.39.1-.28.19.07.05.25-.14.28-.19.02,0,.08.01.09,0s0-.07,0-.09c.11-.05.18-.07.26-.19l.04.09.12-.05s.23.22.25.23c.1.06.99.26,1.14.24.69-.09.7-.43,1.57-.17.43.13.69.2.66.72,0,.14-.14.03-.15.1-.02.12.03.56.07.69.07.21.58.45.59.64.02.31-.6.78-.05,1.12-.06,0-.32.13-.33.15-.07.12.38.55-.1.66-.05,0-.09,0-.14,0l-.02-.24-.07.19c.02-.19.04-.4.05-.59,0-.09-.06-.18-.05-.28.02-.22.29-.32.24-.72,0-.02-.17-.25-.18-.26-.11-.08-.4-.13-.55-.2-.15-.07-.28-.23-.46-.25.09.36.95.39.99.68,0,.07-.16.4-.18.56-.01.14.06.43.04.45,0,0-.21.02-.23.05-.09.14.24.6-.27.61-.09,0-.11-.21-.11-.27,0-.06.04-.51.05-.55.03-.16.33-.32.32-.63,0-.08-.07-.27-.13-.31s-.72-.22-.79-.22c-.11,0-.3.14-.38.13-.03,0-.02-.1-.06-.1-.16-.03-.67.3-.9.33-.2.03-.57,0-.78-.04.11-.22-.15-.06-.26-.14l-.02.1c.1-.04.19.04.24.05-.34.21-.73-.27-1.04-.02-.01.14.18.03.28.09.08.05.08.2.09.21.08.08.1-.09.13-.1.2-.05.54.11.48.34-.1.42-.61-.02-.89.04.04.24.33.1.24.43.25-.09.56.11.47.4,0,.01-.13.16-.14.16-.15.07-.36-.24-.49-.32-.07-.05-.21-.05-.24-.09-.02-.03-.06-.34-.08-.44-.14-.5-.32-.99-.46-1.48.05-.33.7.09.76.02-.11-.35.13-.83-.14-1.09l.38-.14c-.16.04-.31.03-.47.05-.05,0-.09-.01-.14,0-.1.3-.12.7-.51.75-.3.04-.3-.15-.37-.38-.12-.36-.27-.84-.22-1.2l-.23-.41c.04.16-.14.32-.17.42-.02.09.04.28.01.45-.02.15-.22.83-.28.95-.12.24-.23.21-.47.12,0-.19.04-.39-.12-.52-.2.03.02.09.03.16,0,.08.02.22-.05.26-.12-.15-.17-.59-.19-.62.01.01.05,0,.05-.02,0-.05-.07,0-.05.02-.11-.11-.33.18-.36.28-.07.22.02.36.01.54,0,.08-.07.4-.18.37-.01.08.05.04.1.03.26-.05.47-.23.75-.16.19.23-.2.58-.21.68-.06.41-.16.63-.25,1.01-.02.1.01.29-.03.35-.03.04-.17.05-.24.09-.15.09-.49.55-.66.18-.21-.5.46-.39.49-.42.01-.01-.03-.17.02-.24.04-.06.25-.04.22-.19-.28-.08-.9.43-.9-.08,0-.18.23-.33.4-.3.08.01.14.09.15.09.04,0,.09-.16.14-.19.1-.07.26,0,.31-.14-.36-.17-.61.14-.97.09-.09-.01-.16-.08-.24-.09-.15,0-.33.11-.57.09-.3-.03-.65-.3-.91-.32-.11-.01-.19.05-.27.04-.1,0-.17-.14-.29-.14-.04,0-.64.23-.69.25-.54.3.1.79.14.96.02.07-.05.15-.04.22.02.16.22.55-.05.6-.02,0-.03,0-.05,0-.41,0-.11-.52-.19-.61-.01-.02-.23-.04-.28-.05.26-.33-.08-.75-.1-1.11.01-.05,1-.35.86-.51-.42.34-1.32.22-1.02,1,.05.14.19.25.21.41-.07.14-.03.82-.09.87-.09.08-.38-.06-.38-.25,0-.3.26-.4-.19-.58.54-.28-.08-.81-.05-1.14.02-.19.49-.38.57-.57.04-.09.12-.74.09-.79l-.14.05c-.04-.53.12-.62.57-.78.97-.34,1.14.21,1.87.17.22-.01.25-.11.41-.16.12-.04.44-.06.5-.09.03-.02.14-.26.27-.27l.12.19-.05-.28.24.17c-.61-.6-.05-1.58.71-1.57-.49.32-.84,1.07-.44,1.56.05.07-.03.06.11.12.03.06.04.13.09.19-.01,0-.14-.02-.14.02.05.07.1.08.19.07,0,0-.04-.09-.05-.09,0,.01.08,0,.12.04.04.06-.1.09.07.1.03,0,.07,0,.09,0,.35-.06.22-.21.09-.43-.08.02-.12.36-.18.11-.1-.41.64-.46.61.18-.01.23-.12.22-.21.38.14-.12.29-.17.31-.38.07-.67-.82-.86-.81-.14-.01.01-.15-.03-.19-.05-.12-.23-.26-.6,0-.78.17-.12.29.02.24-.31.04.05.17.08.19.09,0,0,.02.16.14.14l-.09.09.31.14c0-.12-.16-.11.02-.16l-.28-.21c.18,0,.33-.04.47.09.02-.19-.13-.24-.28-.28.12-.12.3-.02.43.05.24.12.24.36.14.6-.5-.06-.14.12.09.16.05-.42.16-.57-.24-.81-.01,0-.02-.06-.08-.08-.27-.1-.28-.01-.49.03-.1.02-.18.01-.3.06-.07.03-.42.27-.37.11.03-.09.29-.41.38-.47.52-.39,1.42-.15,1.51.54.14-.14.18-.35.34-.49.39-.35,1.01-.23,1.42.02.11.19.21.41.28.62-.1-.07-.18-.2-.29-.26-.3-.16-.61-.18-.85.09.26,0,.55.14.76-.07-.08.32.14.2.28.36.24.26,0,.63-.22.8-.02.01-.02.15-.11.08-.01-.01.18-.16.05-.35-.03-.04-.09-.03-.1-.03s.01-.07-.03-.1c-.06-.04-.18-.04-.25-.05l-.02-.09c-.14.16-.37.28-.36.52l.32-.32c.06-.03.31,0,.35.04.04.04.04.3,0,.33-.01,0-.28-.11-.24.07s.44.04.53-.02c.08-.05.31-.53.32-.65.03-.28-.18-.82-.42-.97-.02-.04-.03-.1-.06-.13-.06-.06-.28-.07-.25-.16.54.07.98.4,1.07.95ZM36.54,2.52c-.18.23-.08.54-.02.81.02-.16.23-.16.26-.19.15-.15-.23-.04-.24-.05l.05-.57.45-.14c.08-.06-.06-.05-.1-.05-.17.02-.29.05-.4.19ZM36.82,2.85c0,.07-.03.11.07.1.07-.02-.02-.09-.02-.1,0-.06.03-.16-.02-.19-.04,0-.03.15-.02.19ZM37.3,2.76l-.28.07.09.07h-.06s-.04.19-.04.19l.28-.33ZM35,3.04v.05s.03-.03,0-.05ZM33.98,3.75c.03-.12-.1-.12-.17-.19l.12.19h.05ZM37.82,4.7c.11-.04.12-.19.14-.28-.09.03-.15.2-.14.28ZM34.1,4.46v.05s.03-.03,0-.05ZM31.13,5.27c.14-.23.09-.46.1-.71l-.09.17v.54ZM34.26,5.18c0-.2.05-.49-.14-.62l.14.62ZM40.9,5.18c0-.13.01-.27,0-.4,0-.05-.02-.22-.09-.22.03.18-.09.5.09.62ZM37.82,5.27c0-.12,0-.24,0-.36,0-.06.04-.18-.05-.17,0,.12,0,.24,0,.36,0,.06-.04.18.05.17ZM38.84,4.8v.05s.03-.03,0-.05ZM38.77,4.84c-.07-.03-.13.03-.09.05.07.03.13-.03.09-.05ZM38.63,4.89c-.05-.05-.15.04-.09.09s.15-.04.09-.09ZM38.34,5.18s.15-.14.12-.19c-.11.07-.15.02-.12.19ZM41,5.37s0,.05.02.05c.05,0,0-.07-.02-.05l-.05-.14c-.12-.01.02.17.05.14ZM30.89,5.56s.13-.08.09-.14c-.02-.02-.13.08-.09.14ZM34.69,5.6c-.14-.02-.27.03-.38.12.05.11.26.05.28.08.03.03-.04.15.05.14l.05-.33ZM37.73,5.79c-.08-.16-.26-.21-.43-.19,0,.28.22.18.43.19ZM39.05,5.89c.04-.05-.06-.17-.14-.14.05.13-.27.2-.19.28.07.07.13-.12.2-.16.05-.02.12.02.13.01ZM34.67,6.27v.05s.03-.03,0-.05ZM37.44,6.41c.01-.07-.03-.13-.09-.14v.14s.09,0,.09,0ZM34.5,6.74l.12-.38c-.07.06-.1.16-.13.25-.01.04-.08.14.01.13ZM37.46,6.46v.05s.03-.03,0-.05ZM37.54,6.65c.03-.07-.03-.13-.05-.09-.03.07.03.13.05.09ZM37.56,6.69v.05s.03-.03,0-.05Z"/>
        <path class="cls-2" d="M43.84,11.63c2.05,3.64,4.13,7.26,6.24,10.87l.03.11c-1.56,2.77-3.18,5.52-4.78,8.27-.18.31-.36.62-.54.93-.27.47-.6,1.21-.9,1.61-.03.04-.05.09-.11.08-.15-.38-.58-.82-.71-1.19-.02-.05-.04-.09-.02-.15l5.53-9.55s-.22-.51-.26-.58c-.03-.06-.1-.09-.13-.15-1.29-2.28-2.66-4.53-3.91-6.85-.23-.05-.09-.06-.13-.16-.31-.66-.71-1.28-1.08-1.91l.02-.13c.25-.3.43-.9.67-1.17.03-.04.08-.05.1-.03Z"/>
        <path class="cls-2" d="M42.09,7.83s.09,0,.14,0c0,0,.05.05.11.05.21,0,.44-.03.64.02,0,.07-.55,1.07-.62,1.18-.04.06-.07.12-.16.12h-11.07c-1.84,3.22-3.75,6.4-5.56,9.63h-1.52l.09-.22,6.18-10.66s.2-.12.23-.12c.02,0,.03,0,.05,0,3.81.03,7.67,0,11.48,0Z"/>
        <path class="cls-2" d="M47.92,22.97l-.04.22c-1.37,2.25-2.64,4.61-3.98,6.84-.08.13-.33.62-.39.69-.15.14-.17.09-.23.4l-1.69,2.86h-12.55c.15-.48.47-.88.7-1.33h11.16c1.24-2.21,2.52-4.39,3.79-6.58.05-.09.1-.17.15-.24.56-.95,1.08-1.94,1.69-2.86h1.4Z"/>
        <path class="cls-2" d="M40.19,9.54h4.27l.1.03c2.05,3.64,4.15,7.25,6.26,10.86-.26.05-1.39.15-1.54.02l-5.54-9.57c-3.69-.03-7.38-.08-11.07-.05-.06,0-.09-.01-.14-.05-.05-.04-.62-1.04-.66-1.14-.02-.05-.04-.08-.03-.14,2.78,0,5.57.04,8.35.05Z"/>
        <path class="cls-2" d="M28.37,8.56s.59.93.61.99c.02.05.03.09,0,.14l-5.53,9.56c.27.53.56,1.05.84,1.57,1.5,2.71,3.09,5.35,4.64,8.03.04.09.01.14-.02.22-.13.39-.49.77-.65,1.15-.09,0-.16-.15-.2-.22-.29-.49-.53-1.01-.82-1.51-1.76-3.09-3.57-6.15-5.31-9.25l6.12-10.66.11-.11c.06.03.15.05.2.1Z"/>
        <path class="cls-2" d="M27.91,25.29s-.12-.04-.1-.21c0-.02.18-.17.23-.25.07-.12.09-.26.18-.39.13-.19.34-.3.47-.53.25-.48.49-1.59.91-1.89.27-.19.83-.15.67-.59-.04-.12-.3-.11-.28-.43.03-.38.51-.66.82-.46.07.04.28.6.27.69-.01.13-.17.13-.22.21-.19.39.16.34.4.45.41.18.53.37.69.78.09-.21.17-.44.35-.6.26-.22.87-.22.76-.65-.02-.09-.29-.04-.29-.39,0-.2.07-.36.26-.46.47-.25.68.05.77.48s-.11.22-.19.38c-.22.42.53.44.76.62.15.12.22.38.31.54s.11-.11.15-.18c.16-.3.24-.37.53-.51.24-.12.57-.08.46-.48-.02-.06-.2-.07-.24-.25-.1-.5.35-.87.77-.64.07.04.27.56.27.65,0,.2-.19.18-.23.29-.15.42.46.36.66.47.16.09.36.57.45.73.1-.21.19-.46.38-.62.29-.23.85-.17.74-.63-.02-.09-.31-.03-.29-.44s.56-.69.83-.4c.07.08.29.64.24.71-.04.06-.17.07-.21.18-.12.38.44.4.68.58.21.16.23.31.34.51.02.03,0,.09.08.06.03-.01.21-.44.31-.54.17-.16.69-.29.73-.36.2-.33-.2-.4-.21-.46-.1-.41.09-.79.54-.77.3.01.44.34.49.61.07.38-.1.2-.18.33-.25.39.39.43.64.59.62.42.62,1.7,1.22,2.25.13.12.32.12.38.38.05.19-.21-.14-.29-.07-.03.02.05.2-.05.19-.05-.4-.5-.42-.76-.64-.21-.18-.34-.52-.51-.72-.02-.03-.04-.13-.11-.06-.05.05-.05.53-.04.63.08,1.2.88,2.38.26,3.55-.18.35-.8.86-.65,1.29.05.16.21.25.24.4-.39-.04-.46-.23-.42-.59,0-.08.14-.66.16-.69.04-.05.15-.06.22-.12.73-.66.42-1.97.21-2.83-.03-.12-.1-.53-.2-.56-.27-.09-.95.05-1.27,0-.1.02-.39,1.62-.4,1.83-.05.64.04,1.44.71,1.71-.03.36.39,1.16-.21,1.25-.19.03.12-.3.14-.38.15-.51-.43-.92-.64-1.31-.55-1.07.05-2.03.18-3.12-.01-.05-.46-.3-.5-.31-.03,0-.52.25-.53.31.15,1.06.71,2.04.19,3.09-.21.42-.8.81-.65,1.35.04.15.19.23.21.38-.25-.02-.43-.2-.43-.45,0-.07.15-.8.17-.83.04-.06.26-.08.42-.34.58-.89.06-2.21-.12-3.17-.05-.04-1.23-.02-1.29,0-.08.03-.13.24-.15.33-.21.78-.57,2.39.09,2.99.09.09.25.13.3.22.04.08.13.51.14.62.03.3.01.57-.34.63-.19.03.12-.29.15-.37.19-.46-.45-.97-.64-1.37-.24-.49-.26-.78-.18-1.31.09-.6.33-1.19.37-1.81-.12-.01-.47-.31-.5-.31s-.38.3-.5.31c.12,1.08.69,2.08.17,3.15-.18.37-.76.8-.68,1.24.03.18.24.27.23.46-.41-.07-.41-.32-.37-.68,0-.08.11-.54.13-.58.05-.07.16-.08.24-.14.7-.62.43-1.79.26-2.59-.03-.14-.14-.76-.24-.8-.07-.02-1.13-.02-1.22,0-.12.04-.18.33-.21.45-.19.78-.45,2.05.02,2.75.14.21.38.25.42.29.02.03.16.72.16.79.02.25-.09.45-.35.49-.19.03.11-.28.14-.38.15-.53-.44-.92-.65-1.34-.53-1.05.06-2.02.19-3.09-.01-.04-.5-.31-.53-.31-.03,0-.49.26-.5.31.16,1.05.7,2.05.19,3.08-.21.42-.77.78-.67,1.32.03.19.34.31.16.45-.15.03-.34-.33-.35-.46,0-.1.11-.71.14-.84,0-.03.34-.16.48-.39.53-.88.04-2.22-.15-3.15l-1.37.03c-.17.85-.73,2.63,0,3.31.09.08.26.12.3.17.02.03.15.57.15.65.03.27-.03.58-.34.63-.19.03.12-.28.15-.37.19-.46-.38-.89-.58-1.24-.66-1.17.02-1.93.11-3.07.03-.3-.1-.22-.34-.36-.05-.03-.14-.13-.15-.13-.01,0-.1.11-.15.13-.23.12-.37.05-.34.36.07.91.59,1.62.3,2.64-.16.57-.72.91-.81,1.42-.05.27.19.39.27.62-.74-.07-.3-.8-.33-1.27,1.03-.39.73-1.83.55-2.67-.03-.14-.15-.73-.2-.8-.09-.11-1.11-.01-1.32-.05-.26.91-.69,2.33-.16,3.19.14.23.3.2.41.3.04.03.19.8.19.9-.01.18-.14.35-.31.4-.27.08.07-.29.1-.38.15-.49-.44-.91-.64-1.29-.59-1.11.15-2.29.24-3.43,0-.08.05-.86-.09-.75-.17.19-.36.63-.54.78-.14.12-.45.15-.57.33-.18.28.01.56-.03.77,0,.04-.08.06-.09.08-.14-.12-.35.12-.4-.09l-.12.05ZM30.69,22c-.14.08-.24-.08-.37-.06-.24.03-.53.23-.69.41-.2.23-.72,1.26-.81,1.56-.02.06-.03.12-.02.19.14.15.51-.54.58-.63.66-.91.39-.05.53.16.07.1,1.11.01,1.31.04,0-.09.07-.6.1-.62.12-.1.26.27.38.28.21-.43.13-.64-.17-.99-.15-.18-.58-.45-.8-.43-.03,0-.02.07-.04.08ZM34.5,23.34c.12-.36.16-.45-.05-.78-.19-.3-.53-.58-.89-.62-.11-.01-.22.04-.32.05-.24.02-.34-.03-.59.13-.39.25-.85,1.31-1.03,1.77-.03.07-.07.12-.05.21.15.02.24-.12.33-.21.2-.23.38-.62.57-.88.24-.03.18.65.26.67h1.25s.1-.62.1-.62c.23-.05.24.27.43.28ZM35.45,23.68h1.33l.1-.66c.06-.06.25.2.31.24.44-.45-.25-1.24-.76-1.28-.16-.01-.21.08-.29.09-.06,0-.12-.09-.23-.09-.88-.04-1.2,1.44-1.54,2.02-.04.15.05.15.17.07.19-.13.38-.74.61-.71,0,.23-.06.51.17.66-.04-.22.12-.74-.19-.71.29-.55.36.06.33.38ZM40.05,23.34c-.02-.16.16-.29.13-.44-.06-.4-.61-.91-1.02-.94-.15,0-.21.09-.27.09-.05,0-.11-.07-.16-.08-.17-.03-.4.07-.54.15-.4.24-.83,1.31-1.03,1.77-.03.07-.07.13-.05.21.18.18.77-.98.93-1.04.04-.01.08,0,.11,0l.12.62c.17-.04,1.25.04,1.3,0,.03-.03-.07-.54.12-.62.13-.03.26.37.35.28ZM42.42,23.06s.12.01.16.05c.21.18.52.9.74.97.09.03.08.02.14-.05-.35-.59-.66-2.08-1.54-2.07-.11,0-.18.08-.24.09-.08,0-.15-.09-.27-.08-.23,0-.52.2-.67.38-.21.25-.68,1.2-.79,1.53-.03.08-.05.14-.04.22.15.15.53-.57.6-.66.11-.15.23-.3.38-.43.1,0,.14.57.12.66h1.33c-.03-.09.06-.59.1-.62ZM39.81,23.3c-.22.14-.16,1.05.03.53.08-.22.06-.32-.03-.53ZM31.51,23.34c-.07-.07-.08.02-.1.07-.07.19-.04.4-.04.6.17-.11.29-.52.14-.66ZM32.51,23.34c-.07-.07-.19.17-.19.22,0,.09.2.65.24.38.01-.09,0-.55-.05-.59ZM34.17,23.34c0,.1-.13.66.02.66.08,0,.31-.68-.02-.66ZM37.06,23.34c-.07-.07-.08.02-.1.07-.07.19-.04.4-.04.6.18-.09.28-.53.14-.66ZM38.06,23.34c-.07-.08-.18.17-.19.21,0,.09.2.66.23.38.01-.08-.02-.56-.05-.59ZM40.86,23.34c-.27.04-.19.26-.14.45.01.06.08.24.14.26v-.71ZM32.36,24.1s-.12-.38-.17-.38c-.28.17.04.5.17.38ZM37.75,23.73c-.18.17-.16.33.09.38.15-.03-.03-.33-.09-.38ZM40.67,24.1c.04-.06-.09-.39-.12-.38-.26.17-.16.36.12.38ZM35.12,24.1c.03-.55-.48-.25-.17-.04.06.04.09.06.17.04Z"/>
        <path class="cls-2" d="M27.69,32.31s-.2-.06-.22-.08c-2.07-3.61-4.12-7.24-6.26-10.81.48-.09.96-.07,1.45-.07h.06s5.54,9.64,5.54,9.64c3.69.09,7.39.02,11.09.05l.14.1.64,1.18h-12.45Z"/>
        <path class="cls-2" d="M37.18,15.83c-.38-.33-.3-.49-.48-.87-.12-.25-.3-.36-.34-.7-.07-.61.09-.68.26-1.16.11-.32.05-.46.31-.78.29-.36.56-.36.93-.54.29-.14.39-.31.8-.34.48-.04.6.14.96.27.52.18.77.12,1.14.66.09.14.55,1.14.57,1.28.07.56-.1.67-.26,1.11-.17.48-.09.67-.57,1.04-.26.2-.41.18-.65.3-.16.08-.27.21-.48.28-.65.21-.79.02-1.34-.18-.38-.13-.49-.06-.84-.37ZM39.05,13.81c.86-.2.79-1.85,0-2.11-.23-.08-.78-.06-.95.16.7.08,1.23.78,1.13,1.49-.03.19-.13.29-.19.45ZM40.08,12.02c-.07-.05-.14-.07-.22-.06.31.66.29,1.42-.33,1.87l-.47.22c.86.29,1.77-.6,1.54-1.47-.01-.05-.06-.14-.1-.18-.03-.04-.37-.33-.41-.37ZM38.86,13.71c.3-.28.09-.76-.12-1.04-.38-.49-1.11-.77-1.6-.28-.05.05-.29.39-.31.45-.05.18.32-.05.37-.06.76-.19,1.55.1,1.67.94ZM38.67,13.71c-.27-.78-1.55-.8-1.99-.17-.22.31-.2.85.05,1.12.08-.64.76-1.2,1.4-1.14.21.02.35.14.55.19ZM38.96,14.19c.07.27.34.49.61.55,1.09.24,1.85-.38,1.43-1.5l-.35.62c-.25.3-.7.56-1.09.52-.21-.02-.39-.14-.59-.19ZM38.58,13.9c-.4-.36-1.01.07-1.28.4-.54.66-.27,1.42.52,1.64-.43-.76-.2-1.87.76-2.04ZM38.58,14.09c-.64.15-.7,1.13-.47,1.63.19.42.58.54,1.01.5.06,0,.39-.08.4-.09.1-.1-.18-.11-.22-.13-.43-.19-.93-.77-.92-1.27,0-.21.14-.44.19-.64ZM38.82,14.24c-.11-.11-.14.22-.14.26-.03.68.73,1.36,1.4,1.26.3-.05.7-.45.78-.73.05-.18-.32.08-.38.1-.61.18-1.29,0-1.59-.59-.04-.08-.06-.27-.07-.28Z"/>
        <path class="cls-2" d="M33.02,11.45c.63-.09.69.12,1.15.34.41.2.62.17.94.58.25.32.19.46.31.78.16.44.33.56.26,1.11-.05.34-.23.46-.35.7-.19.4-.12.56-.53.9-.35.29-.47.22-.84.34-.3.1-.47.27-.87.27-.43,0-.6-.22-.91-.37-.49-.23-.89-.27-1.13-.87-.07-.17-.04-.3-.08-.44-.06-.21-.24-.37-.28-.67-.07-.69.1-.67.34-1.18.14-.29.13-.52.4-.79.33-.34.53-.29.91-.42.23-.08.35-.25.66-.29ZM33.93,11.86c-.19-.21-.61-.23-.87-.19-.87.14-.9,1.92-.19,2.13.17.05-.04-.2-.05-.23-.24-.77.32-1.63,1.12-1.71ZM32.18,11.96c-1.56.43-.54,2.49.76,2.09-.18-.14-.41-.16-.59-.33-.32-.29-.4-.8-.36-1.21.02-.21.12-.36.19-.55ZM35.21,12.96c-.32-1.04-1.4-1.06-1.98-.21-.12.18-.32.76-.15.92.1.09.15-.26.18-.32.39-.71,1.3-.8,1.95-.39ZM35.35,14.66c.34-.74.04-1.44-.79-1.55-.47-.06-1.17.11-1.24.65.63-.47,1.3-.2,1.75.36l.28.55ZM31.48,13.98c-.21-.2-.34-.47-.42-.74-.54,1.05.33,1.74,1.36,1.51.29-.07.64-.3.63-.61-.5.38-1.14.26-1.57-.16ZM34.22,15.94c.98-.29,1.02-1.29.26-1.9-.26-.21-.75-.44-1.02-.14.97.22,1.16,1.22.76,2.04ZM32.51,16.13c.1.1.67.12.82.08.93-.19.87-1.93.2-2.12-.17-.05.05.35.06.41.11.65-.26,1.16-.8,1.45-.05.03-.37.08-.28.17ZM31.18,14.95c.32.98,1.3,1.06,1.92.28.21-.27.42-.76.12-1.04-.09.78-.91,1.14-1.62.94-.17-.05-.26-.14-.42-.18Z"/>
        <path class="cls-2" d="M38.98,19.31c.06,0,.19-.12.28-.1.14,0,.05.06,0,.09-1.06.43-1.83-.07-2.8-.22-.68-.1-1.72.4-2.5.42-.08,0-1.06-.09-.92-.19.5,0,.99.03,1.47-.1-.07-.16-.37.08-.43-.09.79-.13,1.51-.59,2.15-1.05.23-.16.65-.63.91-.61.05,0,.81.33.87.37s.36.33.3.4c-.04.05-1.14-.44-1.23-.38-.01,0-.1.26-.1.3.01.12.16.14.14.26-.31-.04-.46.03-.68.23-.12.12.14.13.24.19.36.18,1.02.48,1.41.48.27,0,.64.03.9,0Z"/>
        <path class="cls-2" d="M39.41,18.76c.61.3.85.39,1.52.59.06.02.15,0,.16.1-.41.02-.79.01-1.15-.2-.09-.05-.16-.17-.27-.21-.16-.05-.34,0-.52-.05s-.22-.21-.46-.25c-.3-.04.1.26.03.33-.4,0-.67-.31-.81-.66.59.07.96.08,1.5.35Z"/>
        <path class="cls-2" d="M34.07,18.89c0,.09-.16.05-.21.04-.26-.03-.8-.29-1.01-.08-.05.05-.05.2-.13.22-.04,0-.17-.05-.27-.04-.28.03-.61.22-.88.26-.07.01-.15.04-.19-.05,0-.02.39-.17.46-.21.22-.12.96-.7,1.09-.71.14-.01.92.55,1.15.56Z"/>
        <path class="cls-2" d="M39.29,25.15c-.02.33-.15.81-.47.95,0-.3-.28-.55-.14-.85.14.03.12.53.26.47.13-.05.2-.34.25-.46.03-.07-.03-.13.11-.1Z"/>
        <path class="cls-2" d="M41.57,26.1c.04-.31-.21-.53-.14-.85.13-.02.08.03.11.1.03.08.08.4.2.37l.31-.57c.03.33-.13.83-.47.95Z"/>
        <path class="cls-2" d="M30.94,25.2c-.04.32-.12.78-.47.9.02-.31-.21-.53-.14-.85.21-.02.08.45.26.47l.36-.52Z"/>
        <path class="cls-2" d="M35.97,25.24c-.02.08.1.52.17.52l.31-.43c.04.3-.14.57-.36.76l-.21-.55c.01-.1-.08-.34.09-.31Z"/>
        <path class="cls-2" d="M44.46,9.54h-4.27c1.42,0,2.85,0,4.27,0Z"/>
        <path class="cls-2" d="M33.27,26.05c0-.28-.26-.53-.14-.81l.17.43.09.09.31-.57c0,.3-.1.76-.43.85Z"/>
        <path class="cls-2" d="M38.06,3.7s-.22.24-.28.19c-.11-.09.25-.18.28-.19Z"/>
        <path class="cls-2" d="M38.15,3.61s.01.07,0,.09-.07,0-.09,0c.05-.07-.06-.02.09-.09Z"/>
        <path class="cls-2" d="M38.48,3.09s.11.15,0,.26c.09.01.08.11.09.12l-.12.05-.04-.09c-.08.12-.15.14-.26.19.07-.19.25-.33.33-.52Z"/>
        <path class="cls-2" d="M27.91,25.29l.12-.05c.05.21.26-.03.4.09,0,.01,0,.04,0,.05-.16.01-.38.21-.46,0h-.06s0-.07,0-.1Z"/>
        <path class="cls-2" d="M35.31,2.42v.05c-.12-.07-.31-.17-.43-.05-.04-.01-.12.02-.14-.05.21-.05.22-.13.49-.03.06.02.07.07.08.08Z"/>
        <path class="cls-2" d="M27.91,25.38h.06c.08.21.3.01.46,0-.1.11-.39.29-.5.14-.03-.04-.01-.11-.02-.14Z"/>
        <path class="cls-2" d="M34.69,2.61l.28.21c-.19.05-.03.04-.02.16l-.31-.14.09-.09c-.12.02-.13-.14-.14-.14.03,0,.06,0,.09,0Z"/>
        <path class="cls-2" d="M34.07,2.76c-.06.05-.15-.02-.02-.09.04,0,.03.09.02.09Z"/>
        <path class="cls-2" d="M38.48,2.85v-.05s.04.02,0,.05Z"/>
        <path class="cls-2" d="M35.07,4.94c-.1-.03-.08-.01-.14-.09.07-.05.06-.19.05-.26,0-.07-.23-.13-.03-.16.16.13.12.34.12.52Z"/>
        <polygon class="cls-2" points="37.3 2.76 37.01 3.09 37.05 2.9 37.11 2.9 37.01 2.83 37.3 2.76"/>
        <path class="cls-2" d="M40.9,5.18c-.18-.12-.06-.43-.09-.62.07,0,.08.17.09.22.02.13,0,.27,0,.4Z"/>
        <path class="cls-2" d="M36.54,2.52c.11-.14.23-.17.4-.19.04,0,.17-.01.1.05l-.45.14h-.05Z"/>
        <path class="cls-2" d="M37.44,4.23c.16-.01.32,0,.47-.05l-.38.14s-.13.03-.09-.09Z"/>
        <path class="cls-2" d="M34.26,5.18l-.14-.62c.19.13.13.42.14.62Z"/>
        <path class="cls-2" d="M37.82,5.27c-.08.01-.04-.11-.05-.17,0-.12,0-.24,0-.36.08-.01.04.11.05.17,0,.12,0,.24,0,.36Z"/>
        <path class="cls-2" d="M38.63,6.17s-.03,0-.05,0c-.05,0-.14-.09-.24-.05l.02-.1c.11.08.37-.08.26.14Z"/>
        <path class="cls-2" d="M35.16,3.8c-.02.21-.17.26-.31.38.1-.16.2-.15.21-.38h.09Z"/>
        <path class="cls-2" d="M39.05,5.89s-.08-.04-.13-.01c-.07.03-.13.23-.2.16-.08-.08.24-.16.19-.28.08-.03.18.09.14.14Z"/>
        <path class="cls-2" d="M37.82,4.7c0-.08.05-.26.14-.28-.02.09-.04.25-.14.28Z"/>
        <path class="cls-2" d="M34.26,3.8s.05.09.05.09c-.09.01-.14,0-.19-.07,0-.04.13-.03.14-.02Z"/>
        <path class="cls-2" d="M38.34,5.18c-.03-.16.01-.12.12-.19.03.05-.1.22-.12.19Z"/>
        <path class="cls-2" d="M37.44,6.41h-.09s0-.14,0-.14c.07.02.11.08.09.14Z"/>
        <path class="cls-2" d="M36.87,2.85s.1.07.02.1c-.1.02-.06-.02-.07-.1h.05Z"/>
        <path class="cls-2" d="M38.63,4.89c.05.05-.04.15-.09.09s.04-.15.09-.09Z"/>
        <path class="cls-2" d="M34.45,3.94c-.03-.14.12-.15.09,0-.03,0-.07,0-.09,0Z"/>
        <path class="cls-2" d="M34.5,6.74c-.09.01-.03-.09-.01-.13.03-.09.06-.18.13-.25l-.12.38Z"/>
        <path class="cls-2" d="M41,5.37s-.17-.15-.05-.14l.05.14Z"/>
        <path class="cls-2" d="M37.54,6.65s-.08-.03-.05-.09c.02-.03.08.03.05.09Z"/>
        <path class="cls-2" d="M38.77,4.84s-.03.08-.09.05c-.03-.02.03-.08.09-.05Z"/>
        <path class="cls-2" d="M35,3.04s.03.03,0,.05v-.05Z"/>
        <path class="cls-2" d="M38.84,4.8s.03.03,0,.05v-.05Z"/>
        <path class="cls-2" d="M34.74,4.23s.04-.08.05-.02c0,.02-.04.03-.05.02Z"/>
        <path class="cls-2" d="M34.67,6.27s.03.03,0,.05v-.05Z"/>
        <path class="cls-2" d="M37.46,6.46s.03.03,0,.05v-.05Z"/>
        <path class="cls-2" d="M37.56,6.69s.03.03,0,.05v-.05Z"/>
        <path class="cls-2" d="M34.1,4.46s.03.03,0,.05v-.05Z"/>
        <path class="cls-2" d="M34.38,3.7s.03.03,0,.05v-.05Z"/>
      </g>
    </g>
  </g>
</svg>